<svg width="1620" height="483" viewBox="0 0 1620 483" fill="none" xmlns="http://www.w3.org/2000/svg">
<path fill-rule="evenodd" clip-rule="evenodd" d="M170.385 397.823C73.9715 383.512 0 300.394 0 200C0 89.5431 89.5431 0 200 0C310.457 0 400 89.5431 400 200C400 300.778 325.462 384.147 228.509 397.984L199.5 442.02L170.385 397.823Z" fill="url(#paint0_linear)"/>
<path fill-rule="evenodd" clip-rule="evenodd" d="M241.113 116.923C237.055 117.281 233.45 114.44 233.069 110.568C232.694 106.696 235.671 103.254 239.728 102.891C243.785 102.533 247.391 105.374 247.771 109.246C248.151 113.123 245.17 116.564 241.113 116.923ZM231.604 84.2136C218.743 85.5737 206.318 93.1338 201.764 108.893C200.081 114.73 198.919 121.148 197.089 126.893C196.059 130.112 194.827 132.701 192.996 134.448C174.197 152.386 160.875 172.298 151.057 193.066C141.888 212.45 135.792 232.537 131.127 252.415C161.509 228.36 181.723 207.233 208.91 170.996C197.814 219.43 161.838 246.098 121.699 276.954L105.593 316.419C102.996 322.237 109.416 328.137 115.431 325.238C132.369 317.073 147.816 307.175 160.976 294.223C173.604 281.794 184.056 266.654 191.591 247.681C195.76 246.026 199.711 244.337 203.458 242.594L205.456 253.049H201.242C197.281 253.049 194.066 256.117 194.066 259.897C194.066 263.677 197.281 266.746 201.242 266.746L230.539 266.756C234.5 266.756 237.715 263.687 237.715 259.907C237.715 256.127 234.5 253.058 230.539 253.058H220.041L216.73 235.721C228.855 228.66 238.156 220.722 244.901 211.337C254.551 197.901 258.735 181.881 258.198 161.693C258.04 155.822 256.681 148.451 256.768 142.972C256.828 138.882 257.772 135.784 259.009 133.2C263.796 133.795 267.574 132.309 267.838 140.169C267.904 142.401 270.881 143.315 272.306 141.549C280.912 130.867 280.314 112.775 266.712 102.088C261.484 88.8891 245.585 82.7423 231.604 84.2136Z" fill="white"/>
<path d="M518.538 110.368C532.746 110.368 546.09 113.056 558.57 118.432C571.05 123.808 581.898 131.2 591.114 140.608C600.522 149.824 607.914 160.672 613.29 173.152C618.666 185.632 621.354 198.976 621.354 213.184C621.354 227.392 618.666 240.736 613.29 253.216C607.914 265.696 600.522 276.64 591.114 286.048C581.898 295.264 571.05 302.56 558.57 307.936C546.09 313.312 532.746 316 518.538 316H488.298C487.146 316 486.186 315.616 485.418 314.848C484.65 313.888 484.266 312.928 484.266 311.968V114.4C484.266 111.712 485.61 110.368 488.298 110.368H518.538ZM518.538 281.728C527.946 281.728 536.778 279.904 545.034 276.256C553.482 272.608 560.778 267.712 566.922 261.568C573.258 255.424 578.154 248.224 581.61 239.968C585.258 231.52 587.082 222.592 587.082 213.184C587.082 203.776 585.258 194.944 581.61 186.688C578.154 178.24 573.258 170.944 566.922 164.8C560.778 158.464 553.482 153.568 545.034 150.112C536.778 146.464 527.946 144.64 518.538 144.64V281.728ZM649.735 316C647.047 316 645.703 314.752 645.703 312.256V114.4C645.703 111.904 647.047 110.656 649.735 110.656H675.943C678.631 110.656 679.975 111.904 679.975 114.4V312.256C679.975 314.752 678.631 316 675.943 316H649.735ZM742.044 316H715.548C714.396 316 713.436 315.616 712.668 314.848C711.9 313.888 711.516 312.928 711.516 311.968V170.272C711.516 162.016 713.052 154.24 716.124 146.944C719.388 139.648 723.708 133.312 729.084 127.936C734.652 122.56 741.084 118.336 748.38 115.264C755.676 112 763.452 110.368 771.708 110.368C779.964 110.368 787.74 112 795.036 115.264C802.332 118.336 808.668 122.56 814.044 127.936C819.42 133.312 823.644 139.648 826.716 146.944C829.98 154.24 831.612 162.016 831.612 170.272V311.968C831.612 312.928 831.228 313.888 830.46 314.848C829.692 315.616 828.732 316 827.58 316H801.084C800.124 316 799.26 315.616 798.492 314.848C797.724 313.888 797.34 312.928 797.34 311.968V247.456H745.788V311.968C745.788 312.928 745.404 313.888 744.636 314.848C743.868 315.616 743.004 316 742.044 316ZM797.34 213.184V170.272C797.34 163.168 794.844 157.12 789.852 152.128C784.86 147.136 778.812 144.64 771.708 144.64C764.412 144.64 758.268 147.136 753.276 152.128C748.284 157.12 745.788 163.168 745.788 170.272V213.184H797.34ZM867.423 110.368H893.919C894.879 110.368 895.743 110.848 896.511 111.808C897.279 112.576 897.663 113.44 897.663 114.4V281.728H945.183C947.871 281.728 949.215 283.072 949.215 285.76V312.256C949.215 314.752 947.871 316 945.183 316H867.423C866.463 316 865.503 315.616 864.543 314.848C863.775 314.08 863.391 313.216 863.391 312.256V114.4C863.391 113.44 863.775 112.576 864.543 111.808C865.503 110.848 866.463 110.368 867.423 110.368ZM980.485 110.368H1075.24C1077.93 110.368 1079.27 111.616 1079.27 114.112V140.608C1079.27 143.296 1077.93 144.64 1075.24 144.64H1010.73V178.912H1058.25C1060.74 178.912 1061.99 180.16 1061.99 182.656V209.152C1061.99 210.112 1061.61 211.072 1060.84 212.032C1060.07 212.8 1059.21 213.184 1058.25 213.184H1010.73V281.728H1075.24C1077.93 281.728 1079.27 282.976 1079.27 285.472V311.968C1079.27 312.928 1078.89 313.888 1078.12 314.848C1077.35 315.616 1076.39 316 1075.24 316H980.485C979.333 316 978.373 315.616 977.605 314.848C976.837 313.888 976.453 312.928 976.453 311.968V114.112C976.453 111.616 977.797 110.368 980.485 110.368ZM1108.94 110.368H1203.98C1206.67 110.368 1208.01 111.616 1208.01 114.112V140.608C1208.01 143.296 1206.67 144.64 1203.98 144.64H1173.74V311.968C1173.74 312.928 1173.36 313.888 1172.59 314.848C1171.82 315.616 1170.86 316 1169.71 316H1143.21C1142.25 316 1141.39 315.616 1140.62 314.848C1139.85 313.888 1139.47 312.928 1139.47 311.968V144.64H1108.94C1106.45 144.64 1105.2 143.296 1105.2 140.608V114.112C1105.2 111.616 1106.45 110.368 1108.94 110.368ZM1264.32 110.368C1266.82 110.368 1268.07 111.616 1268.07 114.112V255.808C1268.07 263.104 1270.56 269.248 1275.56 274.24C1280.55 279.232 1286.69 281.728 1293.99 281.728C1301.09 281.728 1307.14 279.232 1312.13 274.24C1317.12 269.248 1319.62 263.104 1319.62 255.808V114.112C1319.62 111.616 1320.96 110.368 1323.65 110.368H1349.86C1352.55 110.368 1353.89 111.616 1353.89 114.112V255.808C1353.89 264.064 1352.26 271.84 1349 279.136C1345.92 286.432 1341.7 292.864 1336.32 298.432C1330.95 303.808 1324.61 308.128 1317.32 311.392C1310.02 314.464 1302.24 316 1293.99 316C1285.73 316 1277.96 314.464 1270.66 311.392C1263.36 308.128 1256.93 303.808 1251.36 298.432C1245.99 292.864 1241.67 286.432 1238.4 279.136C1235.33 271.84 1233.8 264.064 1233.8 255.808V114.112C1233.8 113.152 1234.18 112.288 1234.95 111.52C1235.91 110.752 1236.87 110.368 1237.83 110.368H1264.32ZM1376.85 316C1375.69 316.192 1374.73 315.904 1373.97 315.136C1373.2 314.176 1372.81 313.216 1372.81 312.256V285.76C1372.81 283.456 1374.16 282.112 1376.85 281.728C1381.07 281.152 1385.01 279.904 1388.65 277.984C1392.3 276.064 1395.47 273.664 1398.16 270.784C1401.04 267.712 1403.25 264.256 1404.78 260.416C1406.32 256.384 1407.09 252.16 1407.09 247.744V179.2C1407.09 169.984 1408.72 161.344 1411.98 153.28C1415.44 145.216 1420.05 138.112 1425.81 131.968C1431.57 125.824 1438.38 120.928 1446.25 117.28C1454.13 113.44 1462.57 111.232 1471.6 110.656C1474.29 110.656 1475.63 111.904 1475.63 114.4V140.896C1475.63 141.856 1475.25 142.816 1474.48 143.776C1473.71 144.544 1472.75 144.928 1471.6 144.928C1462.96 145.888 1455.76 149.632 1450 156.16C1444.24 162.496 1441.36 170.176 1441.36 179.2V247.744C1441.36 256.768 1439.63 265.312 1436.17 273.376C1432.91 281.44 1428.4 288.544 1422.64 294.688C1416.88 300.832 1410.06 305.824 1402.19 309.664C1394.32 313.312 1385.87 315.424 1376.85 316Z" fill="#249042"/>
<defs>
<linearGradient id="paint0_linear" x1="311.408" y1="35.712" x2="93.8616" y2="280.301" gradientUnits="userSpaceOnUse">
<stop stop-color="#47C763"/>
<stop offset="1" stop-color="#249042"/>
</linearGradient>
</defs>
</svg>
