<?xml version="1.0" encoding="UTF-8" standalone="no"?>
<svg
   xmlns:dc="http://purl.org/dc/elements/1.1/"
   xmlns:cc="http://creativecommons.org/ns#"
   xmlns:rdf="http://www.w3.org/1999/02/22-rdf-syntax-ns#"
   xmlns:svg="http://www.w3.org/2000/svg"
   xmlns="http://www.w3.org/2000/svg"
   xmlns:xlink="http://www.w3.org/1999/xlink"
   xmlns:sodipodi="http://sodipodi.sourceforge.net/DTD/sodipodi-0.dtd"
   xmlns:inkscape="http://www.inkscape.org/namespaces/inkscape"
   version="1.0"
   width="720"
   height="504"
   viewBox="-2100 -1470 4199.9999 2939.9999"
   id="svg2"
   inkscape:version="0.48.2 r9819"
   sodipodi:docname="Bandeira_do_Ceará.svg"
   inkscape:export-filename="C:\Users\MARCOS JUNIOR\Desktop\Bandeira_do_Ceará.png"
   inkscape:export-xdpi="250"
   inkscape:export-ydpi="250">
  <metadata
     id="metadata118">
    <rdf:RDF>
      <cc:Work
         rdf:about="">
        <dc:format>image/svg+xml</dc:format>
        <dc:type
           rdf:resource="http://purl.org/dc/dcmitype/StillImage" />
        <dc:title />
      </cc:Work>
    </rdf:RDF>
  </metadata>
  <sodipodi:namedview
     pagecolor="#ffffff"
     bordercolor="#666666"
     borderopacity="1"
     objecttolerance="10"
     gridtolerance="10"
     guidetolerance="10"
     inkscape:pageopacity="0"
     inkscape:pageshadow="2"
     inkscape:window-width="962"
     inkscape:window-height="578"
     id="namedview116"
     showgrid="false"
     inkscape:zoom="0.29"
     inkscape:cx="929.46717"
     inkscape:cy="137.38727"
     inkscape:window-x="54"
     inkscape:window-y="-8"
     inkscape:window-maximized="1"
     inkscape:current-layer="svg2" />
  <defs
     id="defs4">
    <path
       id="D"
       d="m -31.5,0 h 33 a 30,30 0 0 0 30,-30 v -10 a 30,30 0 0 0 -30,-30 h -33 z m 13,-13 h 19 a 19,19 0 0 0 19,-19 v -6 a 19,19 0 0 0 -19,-19 h -19 z"
       inkscape:connector-curvature="0"
       style="fill-rule:evenodd" />
    <path
       id="E"
       d="M 0,0 H 63 V -13 H 12 V -31 H 52 V -43 H 12 V -57 H 60 V -70 H 0 z"
       transform="translate(-31.5,0)"
       inkscape:connector-curvature="0" />
    <path
       id="e"
       d="m -26.25,0 h 52.5 v -12 h -40.5 v -16 h 33 v -12 h -33 V -51 H 25 v -12 h -51.25 z"
       inkscape:connector-curvature="0" />
    <g
       id="G">
      <clipPath
         id="gcut">
        <path
           d="m -31.5,0 v -70 h 63 V 0 z M 0,-47 v 12 h 31.5 v -12 z"
           id="path11"
           inkscape:connector-curvature="0" />
      </clipPath>
      <use
         xlink:href="#O"
         clip-path="url(#gcut)"
         id="use13"
         x="0"
         y="0"
         width="4200"
         height="2940" />
      <rect
         x="5"
         y="-35"
         width="26.5"
         height="10"
         id="rect15" />
      <rect
         x="21.5"
         y="-35"
         width="10"
         height="35"
         id="rect17" />
    </g>
    <path
       id="M"
       d="m -31.5,0 h 12 v -48 l 14,48 h 11 l 14,-48 V 0 h 12 V -70 H 14 L 0,-22 -14,-70 h -17.5 z"
       inkscape:connector-curvature="0" />
    <path
       id="O"
       d="M 0,0 A 31.5,35 0 0 0 0,-70 31.5,35 0 0 0 0,0 m 0,-13 a 18.5,22 0 0 0 0,-44 18.5,22 0 0 0 0,44"
       inkscape:connector-curvature="0"
       style="fill-rule:evenodd" />
    <path
       id="P"
       d="m -31.5,0 h 13 v -26 h 28 a 22,22 0 0 0 0,-44 h -40 z m 13,-39 h 27 a 9,9 0 0 0 0,-18 h -27 z"
       inkscape:connector-curvature="0"
       style="fill-rule:evenodd" />
    <g
       id="R">
      <use
         xlink:href="#P"
         id="use23"
         x="0"
         y="0"
         width="4200"
         height="2940" />
      <path
         d="m 28,0 c 0,-10 0,-32 -15,-32 H -6 c 22,0 22,22 22,32"
         id="path25"
         inkscape:connector-curvature="0" />
    </g>
    <path
       id="S"
       d="m -15.75,-22 c 0,7 6.75,10.5 16.75,10.5 10,0 14.74,-3.25 14.75,-7.75 C 15.75,-33.5 -31,-24.5 -30.75,-49.5 -30.5,-71 -6,-70 3,-70 c 9,0 26,4 25.75,21.25 l -15.25,0 c 0,-7.5 -7,-10.25 -15,-10.25 -7.75,0 -13.25,1.25 -13.25,8.5 -0.25,11.75 46.25,4 46.25,28.75 C 31.5,-3.5 13.5,0 0,0 -11.5,0 -31.55,-4.5 -31.5,-22 z"
       inkscape:connector-curvature="0" />
    <g
       id="star"
       style="fill:#ffffff">
      <g
         id="c">
        <path
           id="t"
           d="M 0,-1 V 0 H 0.5"
           transform="matrix(0.95105652,0.30901699,-0.30901699,0.95105652,-0.30901699,-0.04894348)"
           inkscape:connector-curvature="0" />
        <use
           xlink:href="#t"
           transform="scale(-1,1)"
           id="use31"
           x="0"
           y="0"
           width="4200"
           height="2940" />
      </g>
      <use
         xlink:href="#c"
         transform="matrix(0.30901699,0.95105652,-0.95105652,0.30901699,0,0)"
         id="use33"
         x="0"
         y="0"
         width="4200"
         height="2940" />
      <use
         xlink:href="#c"
         transform="matrix(0.30901699,-0.95105652,0.95105652,0.30901699,0,0)"
         id="use35"
         x="0"
         y="0"
         width="4200"
         height="2940" />
      <use
         xlink:href="#c"
         transform="matrix(-0.80901699,0.58778525,-0.58778525,-0.80901699,0,0)"
         id="use37"
         x="0"
         y="0"
         width="4200"
         height="2940" />
      <use
         xlink:href="#c"
         transform="matrix(-0.80901699,-0.58778525,0.58778525,-0.80901699,0,0)"
         id="use39"
         x="0"
         y="0"
         width="4200"
         height="2940" />
    </g>
    <use
       id="star1"
       xlink:href="#star"
       transform="scale(31.5,31.5)"
       x="0"
       y="0"
       width="4200"
       height="2940" />
    <use
       id="star2"
       xlink:href="#star"
       transform="scale(26.25,26.25)"
       x="0"
       y="0"
       width="4200"
       height="2940" />
    <use
       id="star3"
       xlink:href="#star"
       transform="scale(21,21)"
       x="0"
       y="0"
       width="4200"
       height="2940" />
    <use
       id="star4"
       xlink:href="#star"
       transform="scale(15,15)"
       x="0"
       y="0"
       width="4200"
       height="2940" />
    <use
       id="star5"
       xlink:href="#star"
       transform="scale(10.5,10.5)"
       x="0"
       y="0"
       width="4200"
       height="2940" />
    <linearGradient
       x1="88.411598"
       y1="48.3573"
       x2="111.566"
       y2="48.3573"
       id="linearGradient2784"
       xlink:href="#id4"
       gradientUnits="userSpaceOnUse" />
    <linearGradient
       x1="88.411598"
       y1="48.3573"
       x2="111.566"
       y2="48.3573"
       id="id4"
       gradientUnits="userSpaceOnUse">
      <stop
         id="stop31"
         style="stop-color:#c0a062;stop-opacity:1"
         offset="0" />
      <stop
         id="stop33"
         style="stop-color:#ceb27c;stop-opacity:1"
         offset="0.50196099" />
      <stop
         id="stop35"
         style="stop-color:#ceb27c;stop-opacity:1"
         offset="1" />
    </linearGradient>
    <radialGradient
       cx="100"
       cy="74.105598"
       r="40.570301"
       fx="100"
       fy="74.105598"
       id="radialGradient2786"
       xlink:href="#id13"
       gradientUnits="userSpaceOnUse" />
    <radialGradient
       cx="100"
       cy="74.105598"
       r="40.570301"
       fx="100"
       fy="74.105598"
       id="id13"
       gradientUnits="userSpaceOnUse">
      <stop
         id="stop76"
         style="stop-color:#ffffff;stop-opacity:1"
         offset="0" />
      <stop
         id="stop78"
         style="stop-color:#e8e8e7;stop-opacity:1"
         offset="1" />
      <stop
         id="stop80"
         style="stop-color:#e8e8e7;stop-opacity:1"
         offset="1" />
    </radialGradient>
    <linearGradient
       x1="88.393898"
       y1="43.4151"
       x2="111.611"
       y2="43.4151"
       id="linearGradient2788"
       xlink:href="#id5"
       gradientUnits="userSpaceOnUse" />
    <linearGradient
       x1="88.393898"
       y1="43.4151"
       x2="111.611"
       y2="43.4151"
       id="id5"
       gradientUnits="userSpaceOnUse">
      <stop
         id="stop38"
         style="stop-color:#c0a062;stop-opacity:1"
         offset="0" />
      <stop
         id="stop40"
         style="stop-color:#dcc89c;stop-opacity:1"
         offset="0.50196099" />
      <stop
         id="stop42"
         style="stop-color:#dcc89c;stop-opacity:1"
         offset="1" />
    </linearGradient>
    <radialGradient
       cx="95.848602"
       cy="69.4571"
       r="18.704201"
       fx="95.848602"
       fy="69.4571"
       id="radialGradient2790"
       xlink:href="#id15"
       gradientUnits="userSpaceOnUse" />
    <radialGradient
       cx="95.848602"
       cy="69.4571"
       r="18.704201"
       fx="95.848602"
       fy="69.4571"
       id="id15"
       gradientUnits="userSpaceOnUse">
      <stop
         id="stop90"
         style="stop-color:#fffcc8;stop-opacity:1"
         offset="0" />
      <stop
         id="stop92"
         style="stop-color:#7fcfd6;stop-opacity:1"
         offset="0.40000001" />
      <stop
         id="stop94"
         style="stop-color:#00a3e4;stop-opacity:1"
         offset="1" />
      <stop
         id="stop96"
         style="stop-color:#00a3e4;stop-opacity:1"
         offset="1" />
    </radialGradient>
    <linearGradient
       x1="109.293"
       y1="78.526398"
       x2="88.659401"
       y2="78.526398"
       id="linearGradient2792"
       xlink:href="#id12"
       gradientUnits="userSpaceOnUse" />
    <linearGradient
       x1="109.293"
       y1="78.526398"
       x2="88.659401"
       y2="78.526398"
       id="id12"
       gradientUnits="userSpaceOnUse">
      <stop
         id="stop71"
         style="stop-color:#f5c491;stop-opacity:1"
         offset="0" />
      <stop
         id="stop73"
         style="stop-color:#f5c491;stop-opacity:1"
         offset="1" />
    </linearGradient>
    <linearGradient
       x1="88.646896"
       y1="78.587799"
       x2="102.421"
       y2="78.587799"
       id="linearGradient2794"
       xlink:href="#id2"
       gradientUnits="userSpaceOnUse" />
    <linearGradient
       x1="88.646896"
       y1="78.587799"
       x2="102.421"
       y2="78.587799"
       id="id2"
       gradientUnits="userSpaceOnUse">
      <stop
         id="stop19"
         style="stop-color:#42929d;stop-opacity:1"
         offset="0" />
      <stop
         id="stop21"
         style="stop-color:#42929d;stop-opacity:1"
         offset="1" />
    </linearGradient>
    <linearGradient
       x1="111.327"
       y1="76.399597"
       x2="98.325203"
       y2="76.399597"
       id="linearGradient2796"
       xlink:href="#id11"
       gradientUnits="userSpaceOnUse" />
    <linearGradient
       x1="111.327"
       y1="76.399597"
       x2="98.325203"
       y2="76.399597"
       id="id11"
       gradientUnits="userSpaceOnUse">
      <stop
         id="stop66"
         style="stop-color:#bb825b;stop-opacity:1"
         offset="0" />
      <stop
         id="stop68"
         style="stop-color:#bb825b;stop-opacity:1"
         offset="1" />
    </linearGradient>
    <linearGradient
       x1="94.737"
       y1="62.577"
       x2="95.207703"
       y2="62.577"
       id="linearGradient2798"
       xlink:href="#id0"
       gradientUnits="userSpaceOnUse" />
    <linearGradient
       x1="94.737"
       y1="62.577"
       x2="95.207703"
       y2="62.577"
       id="id0"
       gradientUnits="userSpaceOnUse">
      <stop
         id="stop9"
         style="stop-color:#c2c1c1;stop-opacity:1"
         offset="0" />
      <stop
         id="stop11"
         style="stop-color:#c2c1c1;stop-opacity:1"
         offset="1" />
    </linearGradient>
    <linearGradient
       x1="94.311699"
       y1="66.701897"
       x2="95.6763"
       y2="66.701897"
       id="linearGradient2800"
       xlink:href="#id8"
       gradientUnits="userSpaceOnUse" />
    <linearGradient
       x1="94.311699"
       y1="66.701897"
       x2="95.6763"
       y2="66.701897"
       id="id8"
       gradientUnits="userSpaceOnUse">
      <stop
         id="stop55"
         style="stop-color:#c2c1c1;stop-opacity:1"
         offset="0" />
      <stop
         id="stop57"
         style="stop-color:#c2c1c1;stop-opacity:1"
         offset="1" />
    </linearGradient>
    <linearGradient
       x1="94.148003"
       y1="64.769699"
       x2="95.814697"
       y2="64.769699"
       id="linearGradient2802"
       xlink:href="#id7"
       gradientUnits="userSpaceOnUse" />
    <linearGradient
       x1="94.148003"
       y1="64.769699"
       x2="95.814697"
       y2="64.769699"
       id="id7"
       gradientUnits="userSpaceOnUse">
      <stop
         id="stop50"
         style="stop-color:#c2c1c1;stop-opacity:1"
         offset="0" />
      <stop
         id="stop52"
         style="stop-color:#c2c1c1;stop-opacity:1"
         offset="1" />
    </linearGradient>
    <linearGradient
       x1="93.378998"
       y1="68.676697"
       x2="96.6063"
       y2="68.676697"
       id="linearGradient2804"
       xlink:href="#id6"
       gradientUnits="userSpaceOnUse" />
    <linearGradient
       x1="93.378998"
       y1="68.676697"
       x2="96.6063"
       y2="68.676697"
       id="id6"
       gradientUnits="userSpaceOnUse">
      <stop
         id="stop45"
         style="stop-color:#c2c1c1;stop-opacity:1"
         offset="0" />
      <stop
         id="stop47"
         style="stop-color:#c2c1c1;stop-opacity:1"
         offset="1" />
    </linearGradient>
    <linearGradient
       x1="94.205803"
       y1="63.206501"
       x2="95.757004"
       y2="63.206501"
       id="linearGradient2806"
       xlink:href="#id1"
       gradientUnits="userSpaceOnUse" />
    <linearGradient
       x1="94.205803"
       y1="63.206501"
       x2="95.757004"
       y2="63.206501"
       id="id1"
       gradientUnits="userSpaceOnUse">
      <stop
         id="stop14"
         style="stop-color:#c2c1c1;stop-opacity:1"
         offset="0" />
      <stop
         id="stop16"
         style="stop-color:#c2c1c1;stop-opacity:1"
         offset="1" />
    </linearGradient>
    <linearGradient
       x1="88.879501"
       y1="44.969501"
       x2="111.101"
       y2="44.969501"
       id="linearGradient2808"
       xlink:href="#id3"
       gradientUnits="userSpaceOnUse" />
    <linearGradient
       x1="88.879501"
       y1="44.969501"
       x2="111.101"
       y2="44.969501"
       id="id3"
       gradientUnits="userSpaceOnUse">
      <stop
         id="stop24"
         style="stop-color:#968247;stop-opacity:1"
         offset="0" />
      <stop
         id="stop26"
         style="stop-color:#a69464;stop-opacity:1"
         offset="0.50196099" />
      <stop
         id="stop28"
         style="stop-color:#a69464;stop-opacity:1"
         offset="1" />
    </linearGradient>
    <linearGradient
       inkscape:collect="always"
       xlink:href="#id4"
       id="linearGradient3270"
       gradientUnits="userSpaceOnUse"
       x1="88.411598"
       y1="48.3573"
       x2="111.566"
       y2="48.3573" />
    <radialGradient
       inkscape:collect="always"
       xlink:href="#id13"
       id="radialGradient3272"
       gradientUnits="userSpaceOnUse"
       cx="100"
       cy="74.105598"
       fx="100"
       fy="74.105598"
       r="40.570301" />
    <linearGradient
       inkscape:collect="always"
       xlink:href="#id5"
       id="linearGradient3274"
       gradientUnits="userSpaceOnUse"
       x1="88.393898"
       y1="43.4151"
       x2="111.611"
       y2="43.4151" />
    <radialGradient
       inkscape:collect="always"
       xlink:href="#id15"
       id="radialGradient3276"
       gradientUnits="userSpaceOnUse"
       cx="95.848602"
       cy="69.4571"
       fx="95.848602"
       fy="69.4571"
       r="18.704201" />
    <linearGradient
       inkscape:collect="always"
       xlink:href="#id12"
       id="linearGradient3278"
       gradientUnits="userSpaceOnUse"
       x1="109.293"
       y1="78.526398"
       x2="88.659401"
       y2="78.526398" />
    <linearGradient
       inkscape:collect="always"
       xlink:href="#id2"
       id="linearGradient3280"
       gradientUnits="userSpaceOnUse"
       x1="88.646896"
       y1="78.587799"
       x2="102.421"
       y2="78.587799" />
    <linearGradient
       inkscape:collect="always"
       xlink:href="#id11"
       id="linearGradient3282"
       gradientUnits="userSpaceOnUse"
       x1="111.327"
       y1="76.399597"
       x2="98.325203"
       y2="76.399597" />
    <linearGradient
       inkscape:collect="always"
       xlink:href="#id0"
       id="linearGradient3284"
       gradientUnits="userSpaceOnUse"
       x1="94.737"
       y1="62.577"
       x2="95.207703"
       y2="62.577" />
    <linearGradient
       inkscape:collect="always"
       xlink:href="#id8"
       id="linearGradient3286"
       gradientUnits="userSpaceOnUse"
       x1="94.311699"
       y1="66.701897"
       x2="95.6763"
       y2="66.701897" />
    <linearGradient
       inkscape:collect="always"
       xlink:href="#id7"
       id="linearGradient3288"
       gradientUnits="userSpaceOnUse"
       x1="94.148003"
       y1="64.769699"
       x2="95.814697"
       y2="64.769699" />
    <linearGradient
       inkscape:collect="always"
       xlink:href="#id6"
       id="linearGradient3290"
       gradientUnits="userSpaceOnUse"
       x1="93.378998"
       y1="68.676697"
       x2="96.6063"
       y2="68.676697" />
    <linearGradient
       inkscape:collect="always"
       xlink:href="#id1"
       id="linearGradient3292"
       gradientUnits="userSpaceOnUse"
       x1="94.205803"
       y1="63.206501"
       x2="95.757004"
       y2="63.206501" />
    <linearGradient
       inkscape:collect="always"
       xlink:href="#id3"
       id="linearGradient3294"
       gradientUnits="userSpaceOnUse"
       x1="88.879501"
       y1="44.969501"
       x2="111.101"
       y2="44.969501" />
  </defs>
  <clipPath
     id="band">
    <circle
       r="735"
       id="circle53"
       cx="0"
       cy="0"
       sodipodi:cx="0"
       sodipodi:cy="0"
       sodipodi:rx="735"
       sodipodi:ry="735" />
  </clipPath>
  <g
     id="g3169"
     transform="matrix(0.18000001,0,0,0.18000001,-1722,1205.4)">
    <rect
       style="fill:#009b3a"
       id="rect46"
       height="16333.333"
       width="23333.332"
       y="-14863.333"
       x="-2100" />
    <path
       style="fill:#fedf00"
       inkscape:connector-curvature="0"
       id="path48"
       d="M -116.6667,-6696.6667 9566.6665,-513.33306 19250,-6696.6667 9566.6665,-12880 z" />
    <circle
       transform="matrix(5.5555555,0,0,5.5555555,9566.6665,-6696.6667)"
       sodipodi:ry="735"
       sodipodi:rx="735"
       sodipodi:cy="0"
       sodipodi:cx="0"
       cy="0"
       cx="0"
       style="fill:#ffffff"
       id="circle50"
       r="735"
       d="M 735,0 C 735,405.92929 405.92929,735 0,735 -405.92929,735 -735,405.92929 -735,0 c 0,-405.92929 329.07071,-735 735,-735 405.92929,0 735,329.07071 735,735 z" />
    <g
       id="_75301336"
       transform="matrix(123.22304,0,0,122.99083,-2755.6389,-15306.024)"
       style="fill-rule:evenodd">
      <path
         style="fill:#5b4431"
         id="_74873744"
         d="M 111.582,52.0104 C 103.8893,50.7989 96.0889,50.935 88.3953,52.0637 l -0.6294,0.0924 2.6701,-6.3494 0.196,-0.032 c 3.0825,-0.5027 6.1975,-0.8472 9.3236,-0.8575 3.1323,-0.0109 6.256,0.3299 9.342,0.8483 l 0.1923,0.0323 2.7367,6.314 -0.6445,-0.1014 -1e-4,0 z"
         inkscape:connector-curvature="0" />
      <path
         style="fill:url(#linearGradient3270)"
         id="_74866616"
         d="m 109.235,51.1114 -0.2811,-1.1142 0.0427,0.0046 c 0.6844,0.0729 1.3677,0.156 2.0494,0.2503 l 0.0167,0.0023 0.5035,1.1616 c -0.7763,-0.1142 -1.5534,-0.2157 -2.3312,-0.3046 l 0,0 z m 1.6362,-1.1849 c -1.6345,-0.2201 -3.2777,-0.3777 -4.9235,-0.4837 l -0.0237,-0.0015 -0.1783,-1.0696 0.0379,0.0027 c 1.5594,0.1114 3.1156,0.2741 4.6633,0.4951 l 0.0166,0.0023 0.4602,1.0618 -0.0525,-0.0071 0,0 z m -0.5999,-1.3836 c -0.5719,-0.0795 -1.1449,-0.1514 -1.7187,-0.2156 l -0.0206,-0.0023 -0.2758,-1.0931 0.0432,0.0052 c 0.5099,0.061 1.0191,0.128 1.5273,0.2013 l 0.0165,0.0024 0.4809,1.1094 -0.0528,-0.0073 0,0 z m -0.6205,-1.4316 c -1.3836,-0.1947 -2.7738,-0.3436 -4.167,-0.4497 l -0.0234,-0.0017 -0.187,-1.1225 0.0392,0.0042 c 1.3153,0.1421 2.6256,0.3292 3.9302,0.5483 l 0.016,0.0027 0.4448,1.0262 -0.0528,-0.0075 0,0 z m -4.6859,-1.6062 0.1887,1.1322 -0.0378,-0.0027 c -1.6342,-0.1157 -3.2727,-0.1732 -4.911,-0.1753 l -0.0298,-10e-5 -9e-4,-1.2131 0.03,0 c 1.5825,0.0039 3.1639,0.0971 4.7381,0.2567 l 0.0227,0.0023 z m -5.0898,-0.2585 9e-4,1.2131 -0.0298,1e-4 c -1.548,0.0055 -3.096,0.06 -4.6406,0.1626 -0.1078,0.0072 -0.2156,0.0147 -0.3234,0.0224 l -0.0379,0.0027 0.1887,-1.1315 0.0227,-0.0022 c 1.5914,-0.1607 3.1897,-0.2577 4.7893,-0.267 l 0.0301,-2e-4 0,0 z m -5.1506,0.3016 -0.1869,1.1219 -0.0234,0.0018 c -1.4126,0.1074 -2.822,0.2564 -4.2255,0.4491 l -0.0519,0.0071 0.4315,-1.0262 0.0163,-0.0026 c 1.3286,-0.2167 2.6622,-0.4035 4.0008,-0.547 l 0.0391,-0.0041 0,0 z m -4.6058,1.8981 c 0.5232,-0.0735 1.0472,-0.1408 1.5719,-0.2022 l 0.043,-0.005 -0.2822,1.1188 -0.0207,0.0023 c -0.5856,0.0649 -1.1703,0.1371 -1.7542,0.2164 l -0.0518,0.0071 0.4772,-1.135 0.0168,-0.0024 z m -0.6118,1.4553 c 1.562,-0.2171 3.1315,-0.3813 4.7042,-0.4975 l 0.038,-0.0028 -0.1782,1.0693 -0.0236,0.0015 c -1.655,0.1106 -3.307,0.2697 -4.9516,0.4855 l -0.0517,0.0067 0.446,-1.0604 0.0169,-0.0023 z m -0.5803,1.38 c 0.6857,-0.092 1.3726,-0.1742 2.0606,-0.2469 l 0.0426,-0.0045 -0.2874,1.1463 c -0.7776,0.0875 -1.5546,0.1851 -2.3309,0.292 l 0.4982,-1.1845 0.0169,-0.0024 0,0 z m 2.1327,0.8599 0.2868,-1.1438 0.0209,-0.0021 c 1.8435,-0.1854 3.6937,-0.3047 5.5453,-0.3692 l 0.034,-0.0011 -0.1015,1.0727 c -1.9303,0.0838 -3.8597,0.2334 -5.7855,0.4435 z m 6.0869,-0.4559 0.1013,-1.0702 0.0263,-8e-4 c 0.4005,-0.0125 0.8011,-0.0222 1.2018,-0.0297 1.4133,-0.0263 2.8274,-0.0236 4.2405,0.0128 l 0.0265,7e-4 0.0999,1.0562 c -1.8981,-0.0565 -3.7977,-0.0446 -5.6963,0.031 l 0,0 z m 5.9975,-0.0213 -0.1,-1.0576 0.0338,0.0011 c 1.8494,0.0553 3.698,0.1688 5.539,0.3546 l 0.0209,0.0021 0.2804,1.1116 c -1.9215,-0.2113 -3.8471,-0.3471 -5.7741,-0.4118 z m 4.7949,-3.4694 0.2764,1.0955 -0.0427,-0.0046 c -1.7425,-0.1847 -3.4925,-0.3014 -5.2438,-0.359 l -0.0266,-9e-4 -0.0931,-1.117 0.0337,0.0012 c 1.6957,0.0649 3.3894,0.1908 5.0755,0.3824 l 0.0206,0.0024 0,0 z m -5.4308,-0.3967 0.0932,1.1185 -0.0334,-10e-4 c -1.6527,-0.0467 -3.307,-0.0413 -4.9595,0.011 l -0.2189,0.0071 0.094,-1.1283 0.0265,-0.001 c 1.6564,-0.0588 3.315,-0.062 4.9716,-0.0072 l 0.0265,9e-4 0,0 z m -5.3256,0.0187 -0.0939,1.1278 -0.0265,0.001 c -1.7537,0.0669 -3.5055,0.189 -5.2508,0.3733 l -0.0426,0.0044 0.2827,-1.1205 0.0207,-0.0022 c 1.0489,-0.1168 2.1005,-0.2099 3.1536,-0.2799 0.6405,-0.0426 1.2816,-0.0767 1.923,-0.1026 l 0.0338,-0.0013 0,0 z m -2.6028,1.5609 c 1.0116,-0.0699 2.0246,-0.1202 3.0381,-0.1523 0.7424,-0.0235 1.485,-0.0376 2.2277,-0.0416 l 0.03,-2e-4 8e-4,1.0858 -0.0297,10e-5 c -0.4588,0.0023 -0.9176,0.0078 -1.3763,0.0164 -1.3527,0.0252 -2.7049,0.0779 -4.0552,0.1624 l -0.0375,0.0023 0.1785,-1.0712 0.0236,-0.0017 z m 5.6247,-0.195 c 1.7382,-0.0018 3.477,0.0511 5.2114,0.1662 l 0.0237,0.0016 0.1785,1.0718 -0.0374,-0.0023 c -1.7895,-0.1069 -3.5827,-0.1539 -5.3753,-0.1516 l -0.03,0 -8e-4,-1.0856 0.0299,-10e-5 0,0 z"
         inkscape:connector-curvature="0" />
      <path
         style="fill:#5b4431"
         id="_74865688"
         d="m 99.978,47.5461 0,0 c 0.5921,0 0.9195,0.4379 1.0766,0.9175 l 0.7489,2.2858 c -0.7171,-0.0069 -2.7387,-0.0287 -3.4559,-0.0165 l 0.5557,-2.2693 c 0.1201,-0.4904 0.4832,-0.9175 1.0747,-0.9175 l 0,0 z"
         inkscape:connector-curvature="0" />
      <path
         style="fill:#5b4431"
         id="_74863040"
         d="m 97.9081,50.462 c 0.0457,-0.4347 0.08,-0.8671 0.1547,-1.2987 0.1895,-1.0949 0.6525,-2.1889 1.9403,-2.1889 0.4379,0 0.8412,0.1255 1.1692,0.4223 0.777,0.7033 0.8243,2.0808 0.9255,3.0562 l 0.0348,0.3346 -0.3364,-0.0048 c -0.126,-0.0018 -0.252,-0.0033 -0.3781,-0.0045 l -0.2687,-0.0025 -0.026,-0.2675 c -0.0379,-0.3886 -0.0572,-0.7755 -0.1172,-1.1622 -0.0916,-0.5898 -0.2768,-1.3775 -1.0135,-1.3775 -0.1693,0 -0.3241,0.0402 -0.4588,0.1455 -0.5457,0.4266 -0.5671,1.7591 -0.6245,2.3986 l -0.024,0.268 -0.269,0.0042 c -0.1349,0.0022 -0.2698,0.0046 -0.4047,0.0074 l -0.339,0.007 0.0354,-0.3372 0,0 z"
         inkscape:connector-curvature="0" />
      <path
         style="fill:#dcc89c"
         id="_74861304"
         d="m 98.6116,50.4859 c 0.0868,-0.9666 0.0889,-2.8164 1.3811,-2.8164 1.3297,0 1.3321,1.8217 1.4282,2.8098 0.1265,0.0011 0.253,0.0027 0.3796,0.0044 -0.1279,-1.2319 -0.169,-3.2103 -1.7974,-3.2103 -1.5918,0 -1.6705,2.0095 -1.7976,3.2199 0.1353,-0.0029 0.2708,-0.0053 0.4061,-0.0074 z"
         inkscape:connector-curvature="0" />
      <path
         style="fill:#3f4446"
         id="_74858176"
         d="m 99.6875,97.852 c -0.7669,-1.4856 -2.6188,-2.7529 -4.0095,-3.6123 -2.0869,-1.2896 -4.3247,-2.389 -6.4866,-3.5517 -2.0785,-1.1179 -4.2234,-2.3272 -6.0696,-3.8017 -1.5855,-1.2662 -3.0911,-2.8575 -3.6965,-4.8366 -0.1869,-0.6112 -0.2816,-1.2406 -0.2816,-1.8796 0,-2.9734 1.0328,-5.6446 2.141,-8.3509 0.8258,-2.0169 2.0057,-4.5927 1.7596,-6.8096 -0.2508,-2.2587 -1.828,-3.8104 -3.6502,-4.9873 l -0.3232,-0.2087 6.0901,-7.8418 0.1335,-0.0228 c 9.7603,-1.664 19.6719,-1.88 29.4188,0.0013 l 0.1286,0.0249 6.0872,7.8384 -0.3232,0.2087 c -1.8224,1.1769 -3.3993,2.7286 -3.65,4.9873 -0.2462,2.2169 0.9337,4.7927 1.7596,6.8096 1.1082,2.7064 2.141,5.3775 2.141,8.3509 0,0.639 -0.0947,1.2684 -0.2817,1.8796 -0.6053,1.9791 -2.1109,3.5704 -3.6964,4.8366 -1.8462,1.4745 -3.9912,2.6838 -6.0697,3.8017 -2.1619,1.1627 -4.3997,2.2621 -6.4865,3.5517 -1.3908,0.8594 -3.2427,2.1267 -4.0095,3.6123 l -0.3126,0.6054 -0.3125,-0.6054 -1e-4,0 0,0 z"
         inkscape:connector-curvature="0" />
      <path
         style="fill:url(#radialGradient3272)"
         id="_54285800"
         d="M 100,97.6917 C 97.0707,92.017 79.4952,88.6821 79.4952,80.1701 c 0,-8.512 8.8779,-14.7672 0.0901,-20.4418 l 5.7684,-7.4339 c 10.3444,-1.7636 20.097,-1.7749 29.2925,0 l 5.7684,7.4339 c -8.7878,5.6746 0.0901,11.9298 0.0901,20.4418 0,8.512 -17.5755,11.8469 -20.5048,17.5216 l 1e-4,0 0,0 z"
         inkscape:connector-curvature="0" />
      <path
         style="fill:#3f4446"
         id="_74852008"
         d="M 99.7545,95.1048 C 98.8186,94.1941 97.7122,93.4353 96.604,92.7504 94.4766,91.4358 92.2271,90.3298 90.0259,89.146 87.1044,87.5747 82.13,84.8851 81.1065,81.5386 c -0.136,-0.4447 -0.2052,-0.9036 -0.2052,-1.3685 0,-2.7038 1.0016,-5.2247 2.0106,-7.6887 0.9712,-2.3718 2.1401,-5.0457 1.8492,-7.6646 -0.2369,-2.1342 -1.3804,-3.7997 -2.9922,-5.1578 l -0.259,-0.2182 4.6136,-5.8541 0.1349,-0.0221 c 9.1105,-1.4892 18.3762,-1.6824 27.4772,-0.0151 l 0.1307,0.024 4.624,5.8673 -0.2591,0.2182 c -1.6117,1.3581 -2.7552,3.0236 -2.9922,5.1578 -0.2909,2.6189 0.8781,5.2928 1.8493,7.6646 1.0089,2.464 2.0106,4.9849 2.0106,7.6887 0,4.1463 -5.955,7.2711 -9.1247,8.9759 -2.2011,1.1838 -4.4506,2.2898 -6.578,3.6044 -1.1083,0.6849 -2.2146,1.4437 -3.1506,2.3544 l -0.2455,0.2389 -0.2455,-0.2389 -1e-4,0 0,0 z"
         inkscape:connector-curvature="0" />
      <path
         style="fill:#00923e;fill-opacity:1"
         id="_54498744"
         d="m 100,94.8539 c 0.9694,-0.9433 2.1356,-1.737 3.2109,-2.4015 2.1252,-1.3133 4.3953,-2.4313 6.5963,-3.615 2.9732,-1.5991 8.94,-4.7054 8.94,-8.6675 0,-2.6508 -0.9956,-5.1412 -1.9845,-7.5562 -0.9986,-2.4387 -2.1721,-5.1446 -1.8732,-7.8356 0.2514,-2.2641 1.4719,-4.0026 3.1147,-5.3868 l -4.3323,-5.4973 c -9.0677,-1.6612 -18.2773,-1.4679 -27.3568,0.0163 l -4.3195,5.481 c 1.6428,1.3842 2.8633,3.1227 3.1147,5.3868 0.2989,2.691 -0.8745,5.3969 -1.8732,7.8356 -0.9889,2.415 -1.9845,4.9054 -1.9845,7.5562 0,0.4313 0.0637,0.8539 0.1899,1.2664 0.9866,3.2257 5.9676,5.9046 8.7502,7.4011 2.2009,1.1837 4.4711,2.3017 6.5963,3.615 1.0753,0.6645 2.2415,1.4582 3.2109,2.4015 l 1e-4,0 z"
         inkscape:connector-curvature="0" />
      <path
         style="fill:#5b4431"
         id="_54530024"
         d="m 93.194,42.9684 0,-0.1972 c 0,-0.1851 0,-0.3701 0,-0.5551 l 0,-0.3252 0.3236,-0.0319 c 0.8625,-0.0851 1.7265,-0.1563 2.5915,-0.2124 l 0.382,-0.0248 1.1451,1.086 0.7168,-0.0207 c 0,-0.071 0,-0.1421 0,-0.2132 0,-0.1881 0,-0.3761 0,-0.5641 l 0,-0.3549 0.3548,-0.0039 c 0.862,-0.0096 1.7241,-0.011 2.5862,-0.0041 l 0.356,0.0029 0,0.3559 c 0,0.1876 0,0.3754 0,0.563 0,0.0703 0,0.1405 0,0.2107 l 0.7277,0.0179 1.1341,-1.0755 0,-0.0115 0.3814,0.0241 c 0.8651,0.0545 1.7293,0.1246 2.592,0.2093 l 0.3237,0.0319 0,0.3252 c 0,0.1841 0,0.3683 0,0.5524 l 0,0.2134 1.8619,-0.8474 0.4181,0.0701 c 0.8666,0.1452 1.731,0.3041 2.5927,0.4763 l 0.2884,0.0577 0,0.2942 c 0,0.1784 0,0.3568 0,0.5352 0,0.1782 0,0.3565 0,0.5348 l 0,0.0883 -0.0409,0.0782 -0.6113,1.3153 -0.7306,0.6368 -0.1222,0.0926 -0.1514,-0.0242 c -3.085,-0.4947 -6.1871,-0.7945 -9.312,-0.8462 -3.764,-0.0622 -7.4902,0.2397 -11.2074,0.8243 l -0.1498,0.0236 -0.1212,-0.091 -0.8589,-0.6394 -0.5902,-1.2958 -0.0389,-0.0766 0,-0.0859 c 0,-0.1783 0,-0.3566 0,-0.5348 0,-0.1784 0,-0.3568 0,-0.5352 l 0,-0.2954 0.2899,-0.0567 c 0.861,-0.1685 1.7245,-0.3244 2.5904,-0.4658 l 0.4166,-0.068 1.8619,0.8368 0,0 z"
         inkscape:connector-curvature="0" />
      <path
         style="fill:url(#linearGradient3274)"
         id="_74850912"
         d="m 90.9733,43.6461 c 0.859,-0.1206 1.7181,-0.2272 2.5795,-0.3204 0,-0.1851 0,-0.3699 0,-0.5545 0,-0.1849 0,-0.3699 0,-0.5551 0.859,-0.0848 1.7181,-0.1556 2.5795,-0.2115 0,0.1872 0,0.3743 0,0.5612 0,0.1871 0,0.3737 0,0.5607 0.8591,-0.0403 1.718,-0.0698 2.5795,-0.0891 0,-0.188 0,-0.3756 0,-0.5635 0,-0.1881 0,-0.3758 0,-0.5641 0.859,-0.0096 1.718,-0.011 2.5794,-0.0041 0,0.1881 0,0.3757 0,0.563 0,0.1876 0,0.3751 0,0.5626 0.859,0.0152 1.718,0.0413 2.5794,0.0793 0,-0.1863 0,-0.3727 0,-0.5588 0,-0.1864 0,-0.3729 0,-0.5594 0.8592,0.0542 1.7182,0.1238 2.5795,0.2084 0,0.1846 0,0.3685 0,0.5524 0,0.1843 0,0.3682 0,0.5522 0.8591,0.0941 1.7181,0.2026 2.5795,0.3266 0,-0.1817 0,-0.3629 0,-0.5445 0,-0.1811 0,-0.3622 0,-0.5443 0.8589,0.1439 1.7203,0.3021 2.5816,0.4743 0,0.1785 0,0.357 0,0.5352 0,0.1781 0,0.3562 0,0.5348 -0.1472,0.2811 -0.2946,0.562 -0.4394,0.8439 l -0.0146,-0.0023 c -3.8129,-0.6048 -7.634,-0.9567 -11.4965,-0.9454 -3.6409,0.0107 -7.2443,0.3449 -10.8379,0.9209 l -0.0065,0.0072 c -0.1418,-0.2745 -0.2826,-0.5493 -0.4224,-0.8243 0,-0.1786 0,-0.3567 0,-0.5348 0,-0.1782 0,-0.3567 0,-0.5352 0.859,-0.1681 1.718,-0.3232 2.5794,-0.4638 0,0.1822 0,0.3644 0,0.5464 0,0.182 0,0.3637 0,0.546 l 0,0 z"
         inkscape:connector-curvature="0" />
      <polygon
         style="fill:#ffffff"
         id="_74849776"
         points="87.1105,61.2836 87.1105,61.2836 86.7555,62.44 85.5998,62.4376 86.5361,63.1499 86.1768,64.305 87.1105,63.5888 88.0442,64.305 87.6849,63.1499 88.6212,62.4376 87.4655,62.44 " />
      <polygon
         style="fill:#ffffff"
         id="_74848672"
         points="86.1377,69.1433 86.1377,69.1433 85.7827,70.2997 84.627,70.2974 85.5633,71.0098 85.204,72.1647 86.1377,71.4487 87.0714,72.1647 86.7121,71.0098 87.6484,70.2974 86.4927,70.2997 " />
      <polygon
         style="fill:#ffffff"
         id="_74847568"
         points="84.8781,76.1858 84.8781,76.1858 84.5231,77.3423 83.3674,77.3398 84.3036,78.0522 83.9444,79.2071 84.8781,78.4911 85.8117,79.2071 85.4525,78.0522 86.3888,77.3398 85.2331,77.3423 " />
      <polygon
         style="fill:#ffffff"
         id="_74846464"
         points="99.9239,88.4404 99.9239,88.4404 99.5689,89.5969 98.4132,89.5944 99.3495,90.3068 98.9903,91.4619 99.9239,90.7457 100.858,91.4619 100.498,90.3068 101.435,89.5944 100.279,89.5969 " />
      <polygon
         style="fill:#ffffff"
         id="_74845224"
         points="106.894,85.5829 106.894,85.5829 106.54,86.7395 105.384,86.7372 106.32,87.4494 105.961,88.6045 106.894,87.8883 107.828,88.6045 107.469,87.4494 108.405,86.7372 107.249,86.7395 " />
      <polygon
         style="fill:#ffffff"
         id="_74844432"
         points="92.8869,85.5829 92.8869,85.5829 93.2419,86.7395 94.3976,86.7372 93.4613,87.4494 93.8205,88.6045 92.8869,87.8883 91.9532,88.6045 92.3124,87.4494 91.3762,86.7372 92.5318,86.7395 " />
      <polygon
         style="fill:#ffffff"
         id="_74843344"
         points="87.3447,81.8287 87.3447,81.8287 87.6997,82.985 88.8554,82.9827 87.9191,83.6951 88.2784,84.85 87.3447,84.1338 86.4111,84.85 86.7703,83.6951 85.834,82.9827 86.9897,82.985 " />
      <polygon
         style="fill:#3f4446"
         id="_74842336"
         points="114.387,86.1959 114.387,86.1959 84.2603,56.0695 84.5754,55.7081 114.765,85.8975 " />
      <path
         style="fill:#3f4446"
         id="_74841536"
         d="m 99.9984,56.4844 c 2.4264,0 4.6817,0.7091 6.6025,2.1999 8.9299,6.9312 6.7037,27.6988 -6.6025,27.6988 -2.4799,0 -4.7812,-0.7317 -6.7283,-2.277 -8.8172,-6.9981 -6.4586,-27.6218 6.7283,-27.6218 l 0,1e-4 z"
         inkscape:connector-curvature="0" />
      <path
         style="fill:#3f4446"
         id="_74840568"
         d="m 99.9984,57.1144 0,0 c 15.0642,0 15.1633,28.6387 0,28.6387 l 0,0 c -15.1633,0 -15.0643,-28.6387 0,-28.6387 z"
         inkscape:connector-curvature="0" />
      <path
         style="fill:url(#radialGradient3276)"
         id="_53316456"
         d="m 111.321,71.9851 -22.6544,0 C 88.4802,64.6464 92.2682,57.1143 99.9938,57.1143 l 0,0 c 7.7256,0 11.5135,7.5321 11.3271,14.8708 l 1e-4,0 0,0 z"
         inkscape:connector-curvature="0" />
      <g
         id="g127">
        <path
           style="fill:#b49700"
           id="_53817216"
           d="m 88.6625,71.2208 6.3738,0 0,0.2742 -6.378,0 0,-0.0611 0.0021,0 c 1e-4,-0.0711 0.0013,-0.1421 0.0021,-0.2131 z"
           inkscape:connector-curvature="0" />
        <path
           style="fill:#b49700"
           id="_53755240"
           d="m 88.7164,69.968 6.3504,1.2599 -0.0534,0.269 -6.3155,-1.253 c 0.0055,-0.0921 0.0117,-0.184 0.0185,-0.2759 l 0,0 z"
           inkscape:connector-curvature="0" />
        <path
           style="fill:#b49700"
           id="_54509048"
           d="m 88.8561,68.6637 6.2392,2.5772 -0.1047,0.2535 -6.1719,-2.5495 c 0.0119,-0.0939 0.0243,-0.1877 0.0374,-0.2812 l 0,0 z"
           inkscape:connector-curvature="0" />
        <path
           style="fill:#b49700"
           id="_54280856"
           d="m 89.1082,67.2543 6.0125,4.0049 -0.152,0.2282 -5.9212,-3.9441 c 0.0195,-0.0966 0.0397,-0.1929 0.0607,-0.289 z"
           inkscape:connector-curvature="0" />
        <path
           style="fill:#b49700"
           id="_54279968"
           d="m 89.5241,65.6857 5.6181,5.5965 -0.1936,0.1942 -5.515,-5.4938 c 0.0294,-0.0994 0.0596,-0.1984 0.0905,-0.2969 z"
           inkscape:connector-curvature="0" />
        <path
           style="fill:#b49700"
           id="_54279080"
           d="m 90.1937,63.9165 4.965,7.3921 -0.2276,0.153 -4.8673,-7.2467 c 0.0423,-0.1001 0.0856,-0.1995 0.1299,-0.2984 l 0,0 z"
           inkscape:connector-curvature="0" />
        <path
           style="fill:#b49700"
           id="_54278192"
           d="m 91.2546,61.9628 3.9151,9.3753 -0.2531,0.1056 -3.8413,-9.1985 c 0.0586,-0.0951 0.1185,-0.1892 0.1793,-0.2824 l 0,0 z"
           inkscape:connector-curvature="0" />
        <path
           style="fill:#b49700"
           id="_54277304"
           d="m 92.869,59.978 2.3058,11.391 -0.2687,0.0544 -2.2691,-11.2101 c 0.0763,-0.0796 0.1535,-0.1582 0.232,-0.2353 l 0,0 z"
           inkscape:connector-curvature="0" />
        <path
           style="fill:#b49700"
           id="_54276416"
           d="m 95.1233,58.304 0.0505,13.0963 -0.2742,0.0011 -0.0499,-12.9435 c 0.0902,-0.0527 0.1814,-0.104 0.2736,-0.1539 l 0,0 z"
           inkscape:connector-curvature="0" />
        <path
           style="fill:#b49700"
           id="_54275528"
           d="m 97.912,57.3096 -2.7453,14.1212 -0.2691,-0.0523 2.7233,-14.0083 c 0.0962,-0.0216 0.1934,-0.0416 0.2911,-0.0606 z"
           inkscape:connector-curvature="0" />
        <path
           style="fill:#b49700"
           id="_54274640"
           d="M 100.997,57.1581 95.1538,71.4594 94.9,71.3557 l 5.8096,-14.219 c 0.0964,0.0061 0.1923,0.0131 0.2874,0.0214 l 0,0 z"
           inkscape:connector-curvature="0" />
        <path
           style="fill:#b49700"
           id="_54273752"
           d="m 104.09,57.9283 -8.9547,13.5566 -0.2289,-0.1511 8.9256,-13.5125 c 0.0868,0.0345 0.1727,0.0702 0.258,0.107 l 0,0 z"
           inkscape:connector-curvature="0" />
        <path
           style="fill:#b49700"
           id="_54272864"
           d="m 106.802,59.6812 -11.6892,11.8252 -0.1951,-0.1928 11.6782,-11.814 c 0.0694,0.0596 0.1382,0.1201 0.2061,0.1816 l 0,0 z"
           inkscape:connector-curvature="0" />
        <path
           style="fill:#b49700"
           id="_54271976"
           d="m 108.874,62.1847 -13.7881,9.3383 -0.1538,-0.227 13.7943,-9.3426 c 0.05,0.0764 0.0991,0.1536 0.1476,0.2313 l 0,0 z"
           inkscape:connector-curvature="0" />
        <path
           style="fill:#b49700"
           id="_54271304"
           d="m 110.271,65.1118 -15.214,6.4225 -0.1067,-0.2527 15.2268,-6.4278 c 0.032,0.0856 0.0633,0.1716 0.0939,0.258 l 0,0 z"
           inkscape:connector-curvature="0" />
        <path
           style="fill:#b49700"
           id="_54270632"
           d="m 111.066,68.2283 -16.0399,3.3112 -0.0555,-0.2686 16.0489,-3.313 c 0.0162,0.0899 0.0317,0.1801 0.0465,0.2704 l 0,0 z"
           inkscape:connector-curvature="0" />
        <path
           style="fill:#b49700"
           id="_54269560"
           d="m 111.329,71.4127 -16.3339,0.1259 -0.0022,-0.2742 16.3335,-0.1259 c 0.002,0.0914 0.002,0.1828 0.003,0.2742 z"
           inkscape:connector-curvature="0" />
        <path
           style="fill:#b49700"
           id="_54268888"
           d="m 95.0367,67.2369 c 2.3103,0 4.184,1.8678 4.184,4.171 l -8.3681,0 c 0,-2.3032 1.8737,-4.171 4.1841,-4.171 z"
           inkscape:connector-curvature="0" />
        <path
           style="fill:#f8c100;fill-opacity:1"
           id="_54268216"
           d="m 95.0367,67.5961 c 2.1208,0 3.8407,1.6655 3.8407,3.7192 l -7.6815,0 c 0,-2.0537 1.7199,-3.7192 3.8408,-3.7192 z"
           inkscape:connector-curvature="0" />
      </g>
      <path
         style="fill:url(#linearGradient3278)"
         id="_54265400"
         d="m 100.57,75.732 c -0.3653,-0.8374 1.8903,-2.4246 2.2415,-3.1076 0.6811,-1.3245 -3.747,-1.0423 -3.626,-1.1344 L 88.7387,71.4326 c 0.0336,0.0016 4e-4,0.0269 -0.0792,0.0698 9e-4,0.5456 0.0256,1.0908 0.0704,1.633 2.6233,0.0859 6.004,-0.0721 6.0872,0.4324 0.0226,0.1374 0.5665,-0.1461 0.4359,8e-4 -1.2006,1.3494 0.287,3.6789 1.806,4.8736 4.7213,3.7132 2.9953,5.7996 -0.8285,6.6384 1.1282,0.4322 2.3816,0.6724 3.7632,0.6724 l 0,0 c 4.3601,0 7.4556,-2.3702 9.2989,-5.7443 -2.8273,-1.136 -7.6118,-1.7299 -8.7226,-4.2767 l 0,0 z"
         inkscape:connector-curvature="0" />
      <path
         style="fill:#3f4446"
         id="_54264712"
         d="m 88.6636,71.1389 c 3.6079,8e-4 7.2156,-0.0053 10.8233,-0.0053 l 1.9492,0 -1.8596,0.5843 c -0.974,0.306 -2.2157,0.8464 -2.5074,1.9352 -0.2203,0.8226 0.1303,1.8059 0.4572,2.5554 0.4783,1.0967 1.0996,2.1479 1.6342,3.2207 0.9767,1.9601 1.8206,4.2066 0.8283,6.3237 C 92.3064,85.7498 88.546,78.394 88.6636,71.1389 l 0,0 z"
         inkscape:connector-curvature="0" />
      <path
         style="fill:url(#linearGradient3280)"
         id="_54263624"
         d="m 99.4869,71.4326 c -7.5469,2.3709 2.9346,8.8388 0.1741,14.3105 -7.3573,-0.208 -11.0141,-7.2573 -11.0027,-14.3093 3.189,-3e-4 7.4423,-0.0012 10.8286,-0.0012 l 0,0 z"
         inkscape:connector-curvature="0" />
      <path
         style="fill:#3f4446"
         id="_53255832"
         d="m 105.724,67.9527 c 1.6021,-0.1709 1.3753,-3.4252 4.2269,-3.4556 0.0299,-3e-4 0.0593,6e-4 0.0888,0.002 0.8877,2.2176 1.3161,4.7264 1.285,7.2247 l -11.4521,0 -0.4153,0 0.1317,-0.3938 c 0.2361,-0.7063 0.7766,-1.5026 1.2397,-2.0815 0.371,-0.4637 0.8056,-0.9323 1.2777,-1.2943 0.3572,-0.2738 0.8617,-0.5803 1.3319,-0.5043 0.3241,0.0525 0.6504,0.14 0.9676,0.2248 0.2804,0.075 1.0506,0.3065 1.3181,0.278 l 0,0 z"
         inkscape:connector-curvature="0" />
      <path
         style="fill:#00923e;fill-opacity:1"
         id="_53255792"
         d="m 105.756,68.2499 c -0.4382,0.0467 -1.607,-0.3824 -2.3651,-0.505 -1.0372,-0.1676 -3.0755,2.3562 -3.518,3.6798 l 11.4563,0 c -0.005,-2.282 -0.3956,-4.5624 -1.167,-6.6119 -0.0686,-0.0114 -0.1378,-0.0176 -0.2078,-0.0168 -2.6777,0.0285 -2.3491,3.2566 -4.1984,3.4539 l 0,0 z"
         inkscape:connector-curvature="0" />
      <path
         style="fill:#3f4446"
         id="_53255568"
         d="m 92.9925,79.7295 c -1.2408,-2.5317 -1.2366,-5.0075 1.412,-6.5027 l 0.9271,-0.5233 -0.5191,0.9295 c -0.1944,0.3482 -0.3055,0.7239 -0.265,1.125 0.1231,1.2188 1.72,2.4647 2.6099,3.1698 l 0.5013,0.3971 -0.6262,0.13 c -1.232,0.2557 -2.5629,0.6466 -3.5976,1.3863 l -0.2871,0.2051 -0.1553,-0.3168 0,0 z"
         inkscape:connector-curvature="0" />
      <path
         style="fill:#ffffff"
         id="_53254464"
         d="m 93.261,79.5978 c -1.4324,-2.9226 -0.8067,-4.9267 1.2905,-6.1107 -0.9546,1.7096 0.4081,3.0807 2.4203,4.6749 -1.4214,0.2951 -2.7111,0.7213 -3.7108,1.4358 l 0,0 z"
         inkscape:connector-curvature="0" />
      <path
         style="fill:#3f4446"
         id="_53253392"
         d="m 96.4878,79.6617 -0.6522,0 c 0.0031,-0.0121 0.0047,-0.0247 0.0047,-0.0377 l 0,-0.3588 c 0,-0.0831 -0.0682,-0.151 -0.1515,-0.151 l -0.3599,0 c -0.0834,0 -0.1515,0.0679 -0.1515,0.151 l 0,0.3588 c 0,0.013 0.0018,0.0256 0.0049,0.0377 l -2.6028,0 0,-0.2266 -0.5081,0 0,0.2266 -0.5706,0 c -0.1483,0.1168 -0.1483,0.2615 0,0.4343 1.6026,0.2683 3.265,0.2682 4.987,0 0.1482,-0.1448 0.1482,-0.2896 0,-0.4343 l 0,0 z"
         inkscape:connector-curvature="0" />
      <path
         style="fill:#3f4446"
         id="_53251864"
         d="m 108.264,81.6095 c -2.4734,-1.282 -5.8975,-1.5556 -7.8099,-3.5806 -1.942,-2.0562 -2.3011,-4.3534 -0.7808,-6.756 l 0.0893,-0.1411 11.5638,0.1375 c 0.0367,3.7845 -0.9821,7.5826 -3.0624,10.3402 z"
         inkscape:connector-curvature="0" />
      <path
         style="fill:url(#linearGradient3282)"
         id="_53250808"
         d="m 99.9255,71.4328 c -1.0379,1.6402 -1.6003,3.907 0.7455,6.3908 1.8602,1.9697 5.2686,2.2306 7.7726,3.5428 1.9063,-2.6612 2.8656,-6.2235 2.8832,-9.7981 L 99.9255,71.4328 z"
         inkscape:connector-curvature="0" />
      <path
         style="fill:#3f4446"
         id="_53249440"
         d="m 111.328,71.4861 -6.0374,1e-4 -1.0393,0 0.8804,-0.5523 c 0.7884,-0.4945 1.3762,-1.0821 2.003,-1.7572 0.407,-0.4382 0.9284,-1.0464 1.5421,-1.1641 0.1281,-0.0245 0.2577,-0.0286 0.3871,-0.0132 0.3387,0.0405 0.6788,0.1079 1.0133,0.1741 0.2896,0.0571 0.5797,0.1172 0.8709,0.1656 0.0418,0.007 0.0886,0.0149 0.1377,0.0226 0.1611,1.0271 0.2431,2.0756 0.2422,3.1244 l 0,0 z"
         inkscape:connector-curvature="0" />
      <path
         style="fill:#00923e;fill-opacity:1"
         id="_53248296"
         d="m 111.133,68.6695 c -0.5838,-0.0767 -1.4767,-0.298 -2.1044,-0.373 -1.1019,-0.1318 -1.7068,1.6168 -3.7379,2.8909 l 6.0338,-1e-4 c -0.0118,-0.8444 -0.0747,-1.6874 -0.1915,-2.5178 z"
         inkscape:connector-curvature="0" />
      <polygon
         style="fill:#f8c300"
         id="_53247640"
         points="94.2222,63.6888 94.2222,63.6888 95.7405,63.6888 95.7405,64.4931 94.2222,64.4931 " />
      <path
         style="fill:#3f4446"
         id="_53246648"
         d="m 94.9724,62.0468 c 0.2937,0 0.5318,0.2374 0.5318,0.5302 0,0.2927 -0.2381,0.5301 -0.5318,0.5301 -0.2937,0 -0.5318,-0.2374 -0.5318,-0.5301 0,-0.2928 0.2381,-0.5302 0.5318,-0.5302 z"
         inkscape:connector-curvature="0" />
      <path
         style="fill:url(#linearGradient3284)"
         id="_53245416"
         d="m 94.9724,62.3424 c 0.1299,0 0.2353,0.1051 0.2353,0.2346 0,0.1295 -0.1054,0.2346 -0.2353,0.2346 -0.1299,0 -0.2354,-0.1051 -0.2354,-0.2346 0,-0.1295 0.1055,-0.2346 0.2354,-0.2346 z"
         inkscape:connector-curvature="0" />
      <polygon
         style="fill:#3f4446"
         id="_54509480"
         points="93.9968,68.6101 93.9968,68.6101 94.2273,64.7937 95.7571,64.7937 95.9917,68.6101 " />
      <polygon
         style="fill:url(#linearGradient3286)"
         id="_54509440"
         points="94.3117,68.3146 94.3117,68.3146 94.5066,65.0892 95.4783,65.0892 95.6763,68.3146 " />
      <polygon
         style="fill:#3f4446"
         id="_54509216"
         points="93.8516,64.1974 93.8516,64.1974 96.1112,64.1974 96.1112,65.3418 93.8516,65.3418 " />
      <polygon
         style="fill:url(#linearGradient3288)"
         id="_54509024"
         points="94.148,64.4931 94.148,64.4931 95.8147,64.4931 95.8147,65.0463 94.148,65.0463 " />
      <polygon
         style="fill:#3f4446"
         id="_54508336"
         points="94.0046,65.9515 96.9028,65.9515 96.9028,71.4022 93.0825,71.4022 93.0825,65.9515 94.0046,65.9515 " />
      <polygon
         style="fill:url(#linearGradient3290)"
         id="_54507336"
         points="93.379,66.247 93.84,66.247 93.84,66.7066 93.84,66.7066 94.3011,66.7066 94.3011,66.247 94.7622,66.247 94.7622,66.7066 95.2232,66.7066 95.2232,66.247 95.6843,66.247 95.6843,66.7066 96.1453,66.7066 96.1453,66.247 96.6063,66.247 96.6063,66.7066 96.6063,71.1065 93.379,71.1065 93.379,66.7066 " />
      <path
         style="fill:#3f4446"
         id="_54506448"
         d="m 94.9765,69.5912 c 0.2504,0 0.4336,0.2482 0.4336,0.5217 0,0.3033 0,0.7652 0,1.0684 l -0.8672,0 0,-1.0684 c 0,-0.2736 0.1832,-0.5217 0.4336,-0.5217 z"
         inkscape:connector-curvature="0" />
      <polygon
         style="fill:#3f4446"
         id="_54505792"
         points="95.3932,68.7024 95.3932,68.7024 94.5921,68.7024 94.5921,67.9169 95.3932,67.9169 " />
      <polygon
         style="fill:#3f4446"
         id="_54505120"
         points="93.2247,67.2511 93.2247,67.2511 96.7624,67.2511 96.7624,67.5596 93.2247,67.5596 " />
      <polygon
         style="fill:#3f4446"
         id="_54504032"
         points="93.2247,68.9742 93.2247,68.9742 96.7624,68.9742 96.7624,69.2829 93.2247,69.2829 " />
      <polygon
         style="fill:#3f4446"
         id="_54503360"
         points="95.1356,63.5988 95.1356,63.5988 95.1356,64.4192 94.827,64.4192 94.827,63.5988 " />
      <path
         style="fill:#3f4446"
         id="_53194392"
         d="m 94.9813,62.5802 c 0.505,0 1.0721,0.3228 1.0721,0.8787 l 0,0.374 -2.1441,0 0,-0.374 c 0,-0.5559 0.567,-0.8787 1.072,-0.8787 l 0,0 z"
         inkscape:connector-curvature="0" />
      <path
         style="fill:url(#linearGradient3292)"
         id="_53194352"
         d="m 94.9813,62.8757 10e-5,0 c 0.4266,0 0.7756,0.2625 0.7756,0.5832 l 0,0.0784 -1.5512,0 0,-0.0784 c 0,-0.3207 0.349,-0.5832 0.7755,-0.5832 z"
         inkscape:connector-curvature="0" />
      <polygon
         style="fill:#3f4446"
         id="_53194296"
         points="94.4382,63.5917 94.4382,63.5917 94.4382,64.4192 94.1296,64.4192 94.1296,63.5917 " />
      <polygon
         style="fill:#3f4446"
         id="_53921888"
         points="95.833,63.5988 95.833,63.5988 95.833,64.4192 95.5245,64.4192 95.5245,63.5988 " />
      <g
         id="g178">
        <path
           style="fill:#3f4446"
           id="_52924384"
           d="m 100.565,61.6174 c 1.0159,-0.0197 2.0193,0.075 2.9796,0.4264 0.8236,0.3012 1.5433,0.7659 2.1783,1.369 l 0.4648,0.4417 -2.1882,0.2484 -0.1031,-0.1159 c -0.9469,-1.0642 -2.1474,-1.2499 -3.4404,-1.6272 -0.2243,-0.0655 -0.6565,-0.1263 -0.6106,-0.4609 0.0461,-0.3352 0.485,-0.2769 0.7196,-0.2815 l 0,0 z"
           inkscape:connector-curvature="0" />
        <path
           style="fill:#ffffff"
           id="_53921864"
           d="m 100.571,61.9165 c 0.9844,-0.0191 1.9474,0.0703 2.871,0.408 0.7184,0.2628 1.413,0.6761 2.0752,1.3052 l -1.3973,0.1586 0,0 c -1.012,-1.1374 -2.2771,-1.3354 -3.5799,-1.7156 -0.5464,-0.1595 -0.5247,-0.1456 0.031,-0.1562 z"
           inkscape:connector-curvature="0" />
        <path
           style="fill:#3f4446"
           id="_54532464"
           d="m 107.235,62.5766 c 0.1883,0.1094 0.3297,0.3349 0.344,0.5455 0.1611,0.2326 0.1669,0.6196 -0.092,0.7877 -0.4225,0.2745 -0.8646,0.3032 -1.2956,0.44 0.2156,0.6854 0.575,1.3532 0.552,2.0884 -0.004,0.1422 -0.0172,0.2843 -0.037,0.4254 -0.1425,1.022 -0.6434,1.9236 -0.8196,2.9151 -0.0349,0.1963 0.002,0.5906 -0.3248,0.6018 -0.3323,0.0113 -0.3182,-0.3795 -0.3528,-0.575 -0.1232,-0.6962 -0.1747,-1.4233 -0.2524,-2.1271 -0.0723,-0.6551 -0.2099,-1.926 -0.5764,-2.5064 -0.2435,-0.1499 -0.5047,-0.2694 -0.7743,-0.3641 l -0.007,-0.0023 -0.006,-0.0026 c -0.1768,-0.0716 -0.418,-0.103 -0.6151,-0.121 -0.1913,0.0479 -0.4191,0.0737 -0.6079,0.1258 l -0.454,0.1253 0.0798,-0.4641 c 0.0372,-0.2178 0.1168,-0.4337 0.2063,-0.6366 0.1761,-0.3994 0.4892,-0.6726 0.9384,-0.639 l 1.3726,-0.2857 0.041,0.0028 c 0.2414,0.0168 0.5005,-0.048 0.7271,-0.1266 0.2524,-0.0872 0.4942,-0.2018 0.7351,-0.3168 0.1832,-0.0876 0.4203,-0.2099 0.6187,-0.2484 0.243,-0.0472 0.5033,0.1334 0.6,0.3579 l 0,0 z"
           inkscape:connector-curvature="0" />
        <path
           style="fill:#ffffff"
           id="_54532440"
           d="m 104.534,63.2089 c 0.8146,0.0566 1.7704,-0.6212 2.1586,-0.6965 0.1311,-0.0255 0.3673,0.1959 0.252,0.3075 -0.0748,0.0722 -0.5163,0.237 -0.6417,0.3035 -0.0829,0.0436 0.6223,-0.3277 0.7155,-0.3136 0.197,0.0299 0.3191,0.3559 0.2317,0.4243 0,0 -0.6285,0.1712 -0.8179,0.258 -0.1741,0.0797 0.5237,-0.2438 0.8179,-0.258 0.1055,-0.005 0.2243,0.3279 0.0748,0.425 -0.4423,0.2874 -1.0283,0.3002 -1.4951,0.5083 0.1772,0.7125 0.6384,1.5252 0.6155,2.2615 -0.036,1.1486 -0.6612,2.2229 -0.8522,3.2976 -0.0747,0.4206 -0.003,0.514 -0.0889,0.0268 -0.2481,-1.4016 -0.2624,-3.8782 -0.9101,-4.8005 -0.265,-0.1697 -0.5612,-0.312 -0.8882,-0.4269 -0.1726,-0.0698 -0.4235,-0.1185 -0.753,-0.1462 -0.1782,0.0491 -0.5137,0.1207 -0.6918,0.1699 0.0574,-0.3339 0.2698,-1.133 0.8963,-1.054 l 1.3766,-0.2867 0,0 z"
           inkscape:connector-curvature="0" />
        <path
           style="fill:#3f4446"
           id="_53227088"
           d="m 103.096,64.0381 c 0.076,0.0059 0.1418,-0.054 0.1476,-0.1336 0.005,-0.0802 -0.0512,-0.1494 -0.1274,-0.1554 -0.0757,-0.006 -0.1417,0.0541 -0.1472,0.1338 -0.006,0.08 0.0513,0.1494 0.127,0.1552 z"
           inkscape:connector-curvature="0" />
        <polygon
           style="fill:#3f4446"
           id="_53915576"
           points="105.643,66.0216 105.643,66.0216 106.251,68.1109 106.065,68.3093 105.413,66.0885 " />
        <polygon
           style="fill:#3f4446"
           id="_53915552"
           points="105.914,65.5735 105.914,65.5735 106.544,66.8972 106.424,67.1796 105.698,65.6764 " />
        <polygon
           style="fill:#3f4446"
           id="_53755392"
           points="107.242,62.8054 107.242,62.8054 106.246,63.2824 106.144,63.0662 107.001,62.6606 " />
        <polygon
           style="fill:#3f4446"
           id="_53646872"
           points="107.459,63.3912 107.459,63.3912 106.384,63.6465 106.33,63.4134 107.351,63.1654 " />
      </g>
      <g
         id="g189">
        <path
           style="fill:#3f4446"
           id="_53332248"
           d="m 104.128,77.2079 c 0.1173,-0.4695 0.2363,-0.8533 0.4603,-1.2451 l -0.5531,0.5532 -0.1691,-0.1691 0.441,-0.4412 c -0.3231,0.192 -0.601,0.4425 -0.8479,0.7525 l -0.0136,0.0639 0.002,0.0785 0.1032,1.0515 0.5186,-0.5473 0.0389,-0.0422 0.019,-0.0514 10e-4,-0.0033 0,0 z m 1.4429,-0.7463 c 0.0124,0.4655 0.0265,0.9306 0.0414,1.396 l 0.2165,-0.5028 -2e-4,-0.0296 -0.0101,-0.0168 c -0.0813,-0.3051 -0.1485,-0.5818 -0.2476,-0.8468 l 0,0 z m 0.0597,1.9584 c 0.0436,1.3262 0.0903,2.6525 0.1172,3.9792 l 0.005,0.244 -1.3702,0 0.1434,-4.277 -0.1886,-0.4383 0.009,0.687 -0.2392,0.0031 -0.008,-0.6537 -0.2326,0.617 -0.2238,-0.0844 0.2466,-0.6542 -0.4616,0.4872 -0.1736,-0.1645 0.079,-0.0834 -0.0693,-0.7057 -0.1822,0.6868 -0.2312,-0.0614 0.1776,-0.669 -0.3911,0.5627 -0.1964,-0.1365 0.4355,-0.6267 -0.6016,0.3871 -0.1294,-0.2012 0.5648,-0.3634 -0.1906,0.0398 -0.0688,0.1221 -0.1395,-0.0786 -0.2556,0.0534 -0.0489,-0.2342 0.0687,-0.0143 -0.1438,-0.1375 0.5803,-0.6069 -0.7103,0.4151 -0.1206,-0.2066 0.779,-0.4551 -0.8708,0.196 -0.0526,-0.2333 0.7179,-0.1617 -0.7351,-0.0255 0.008,-0.239 0.8198,0.0284 -0.787,-0.2575 0.0744,-0.2273 0.7808,0.2553 -0.4117,-0.2788 -0.0628,0.01 -0.009,-0.0589 -0.2093,-0.1417 0.1342,-0.1981 0.2031,0.1376 0.5223,-0.0829 -0.7586,-0.0832 0.0261,-0.2378 0.8602,0.0944 -0.7765,-0.3375 0.0954,-0.2194 0.7822,0.3401 -0.6447,-0.5578 0.1564,-0.1809 0.6411,0.5546 -0.4572,-0.7354 0.1739,-0.1082 0.0462,-0.1131 0.2453,0.1004 -0.0258,-0.0981 0.1008,-0.0266 -0.1964,-0.1455 0.1425,-0.1922 0.7467,0.5532 -0.5527,-0.7209 0.1898,-0.1456 0.6028,0.7863 -0.3313,-0.9204 0.225,-0.081 0.279,0.7751 -0.0723,-0.8195 0.2383,-0.021 0.0797,0.9035 0.1776,-0.8983 0.2347,0.0464 -0.1761,0.8906 0.2636,-0.5117 -0.0866,-0.1681 0.2126,-0.1096 0.009,0.0166 0.0261,-0.0506 0.2126,0.1096 -0.1042,0.2021 0.2812,0.5458 -0.1761,-0.8907 0.2346,-0.0464 0.1777,0.8984 0.0796,-0.9036 0.2383,0.021 -0.0722,0.8196 0.279,-0.7752 0.225,0.0811 -0.3314,0.9205 0.603,-0.7864 0.1898,0.1455 -0.5527,0.7209 0.7466,-0.5531 0.1424,0.1922 -0.1562,0.1157 0.0843,0.0223 -0.0331,0.1254 0.2289,-0.0936 0.0312,0.0762 0.01,-0.0153 0.2031,0.1263 -0.4572,0.7354 0.641,-0.5546 0.1565,0.1809 -0.6447,0.5578 0.7822,-0.3401 0.0954,0.2194 -0.7765,0.3375 0.8602,-0.0944 0.0261,0.2378 -0.7586,0.0832 0.5834,0.0926 0.2174,-0.1473 0.1342,0.1981 -0.2938,0.1989 -2e-4,0.0017 -0.002,-3e-4 -0.3973,0.2691 0.7807,-0.2553 0.0744,0.2273 -0.787,0.2575 0.8199,-0.0284 0.008,0.239 -0.7351,0.0255 0.718,0.1617 -0.0526,0.2333 -0.8709,-0.196 0.7791,0.4551 -0.1207,0.2066 -0.7102,-0.415 0.5802,0.6068 -0.1437,0.1375 0.0686,0.0143 -0.0489,0.2342 -0.2556,-0.0534 -0.1395,0.0786 -0.0687,-0.1221 -0.1907,-0.0398 0.5648,0.3634 -0.1294,0.2012 -0.6016,-0.3871 0.4355,0.6267 -0.1964,0.1365 -0.3911,-0.5627 0.1776,0.669 -0.2312,0.0614 -0.1822,-0.6868 -0.0693,0.7057 0.0791,0.0834 -0.1736,0.1645 -0.4617,-0.4873 0.2466,0.6543 -0.2238,0.0844 -0.2325,-0.6168 -0.008,0.6535 -0.2392,-0.0031 0.009,-0.687 -0.2119,0.4921 0,0 z m -1.0858,-0.615 0.0431,-1.2879 c -0.0875,0.2221 -0.1536,0.453 -0.2186,0.7109 -0.006,0.0261 -0.0125,0.0509 -0.0213,0.0763 l 0.003,0.0505 0.1939,0.4502 z m 2.0151,-3.0989 c -0.2038,0.0818 -0.4468,0.1945 -0.6741,0.3326 l 0.7614,-0.1303 0.0404,0.2358 -0.6482,0.1109 c 0.3088,0.01 0.615,0.0581 0.906,0.1558 l 0.0306,0.0091 0.0341,-0.0102 0.8066,-0.5465 -1.1049,-0.1753 -0.0884,-0.0119 -0.0635,0.03 0,0 z m -1.0836,0.3226 c 0.3138,-0.2417 0.7005,-0.4287 1.0185,-0.5542 l 0.0349,-0.0186 0.006,-0.038 0.2365,-0.8968 -0.9069,0.3708 -0.0526,0.0216 -0.0363,0.0492 c -0.1677,0.2581 -0.2947,0.5258 -0.3901,0.8049 l 0.6594,-0.7592 0.1806,0.1569 -0.75,0.8634 0,0 z m 1.2469,1.6195 c -0.2645,-0.3431 -0.5744,-0.6054 -0.9407,-0.7992 l 0.5011,0.5199 -0.1722,0.166 -0.4481,-0.4649 c 0.1712,0.3464 0.2588,0.7009 0.3676,1.1089 l 0.0236,0.0867 0.0563,0.0392 0.5186,0.5473 0.1032,-1.0515 0.01,-0.0824 -0.0191,-0.07 0,0 z m -1.5186,-2.0821 c 0.0941,-0.2485 0.2131,-0.4883 0.3628,-0.7207 l 0.0117,-0.0281 -0.003,-0.0344 -0.5444,-1.0567 -0.527,1.0226 0.01,0.0618 c 0.1986,0.301 0.3448,0.6145 0.4512,0.943 l 6e-4,-1.0577 0.2392,1e-4 -5e-4,0.8701 0,0 z m 1.6511,1.0671 c -0.251,-0.0827 -0.5149,-0.1255 -0.7814,-0.1373 l 0.5732,0.1879 -0.0745,0.2273 -0.4748,-0.1557 c 0.3411,0.2146 0.6337,0.4924 0.8852,0.8418 l 0.008,0.0117 0.001,0.0017 0.5122,0.107 -0.5677,-1.0079 -0.0297,-0.0508 -0.0521,-0.0257 0,0 z m -0.007,-2.4018 0.0307,-0.1163 -0.3126,0.2316 0.2819,-0.1153 0,0 z m 0.2009,0.1762 -0.1072,0.4064 0.3024,-0.4861 -0.1952,0.0797 0,0 z m -2.7443,0.5207 -0.0331,-0.0438 -0.0568,-0.0266 -0.8905,-0.3642 0.2438,0.9242 0.0409,0.0565 c 0.3555,0.1403 0.7966,0.3573 1.126,0.6418 l 0.008,0.0014 -0.8613,-0.8885 0.1718,-0.1664 0.6528,0.6735 c -0.0984,-0.2801 -0.2294,-0.5489 -0.4019,-0.8079 l 0,0 z m -0.7858,0.7657 -0.0603,-0.0187 -0.0666,0.0127 -1.0438,0.1657 0.821,0.5561 0.0341,0.0069 0.0315,-0.0043 c 0.2875,-0.0929 0.5902,-0.1437 0.8949,-0.1571 l -0.6487,-0.1111 0.0404,-0.2358 0.6712,0.1149 -0.6737,-0.3293 0,0 z m 0.5688,1.0657 -0.4868,0.1642 -0.0764,-0.2267 0.5996,-0.2023 c -0.2726,0.0133 -0.5429,0.0588 -0.8001,0.1401 l -0.0454,0.0278 -0.0368,0.0469 -0.5678,1.0079 0.5136,-0.1073 0.0194,-0.0248 0.0251,-0.0259 1e-4,-4e-4 2e-4,10e-5 c 0.2502,-0.3243 0.5312,-0.5908 0.8553,-0.7996 l 0,0 z m -1.4732,0.5762 -0.4709,0.4925 0.2194,-0.0459 0.2515,-0.4466 0,0 z m 0.4326,-2.9557 -0.2083,-0.0851 0.3226,0.5189 -0.1143,-0.4338 z m 0.2009,-0.1762 0.2654,0.1086 -0.2943,-0.2181 0.0289,0.1095 0,0 z m 4.5678,3.5785 0.2193,0.0459 -0.4709,-0.4925 0.2516,0.4466 z"
           inkscape:connector-curvature="0" />
        <path
           style="fill:#3f4446"
           id="_52970160"
           d="m 104.863,75.4541 -0.2331,6.9497 0.8788,0 c -0.0478,-2.3545 -0.153,-4.5952 -0.2007,-6.9497 -0.1713,-0.2344 -0.3146,-0.1824 -0.445,0 l 0,0 z"
           inkscape:connector-curvature="0" />
        <path
           style="fill:#957f66"
           id="_53332544"
           d="m 104.863,75.4541 -0.0113,0.3346 0.4718,0.3554 -0.009,-0.3812 -0.4366,-0.329 -0.0148,0.0202 z m -0.2198,6.5538 -0.0123,0.3652 0.0408,0.0307 0.4969,0 -0.5254,-0.3959 z m 0.0245,-0.7316 -0.0122,0.3652 0.8506,0.641 -0.009,-0.3809 -0.8298,-0.6253 0,0 z m 0.0246,-0.7316 -0.0123,0.3652 0.8081,0.6089 -0.0104,-0.3823 -0.7854,-0.5918 z m 0.0245,-0.7316 -0.0122,0.3651 0.762,0.5743 -0.0116,-0.3832 -0.7382,-0.5562 0,0 z m 0.0245,-0.7316 -0.0122,0.3652 0.7138,0.5378 -0.0125,-0.3837 -0.6891,-0.5193 z m 0.0246,-0.7316 -0.0123,0.3652 0.6642,0.5004 -0.0128,-0.384 -0.6391,-0.4816 z m 0.0245,-0.7316 -0.0122,0.3651 0.614,0.4627 -0.0126,-0.3838 -0.5892,-0.444 0,0 z m 0.0246,-0.7316 -0.0123,0.3651 0.5645,0.4255 -0.0118,-0.3834 -0.5404,-0.4072 z m 0.0245,-0.7316 -0.0123,0.3651 0.5168,0.3894 -0.0107,-0.3824 -0.4938,-0.3721 0,0 z"
           inkscape:connector-curvature="0" />
      </g>
      <path
         style="fill:url(#linearGradient3294)"
         id="_74839776"
         d="m 89.7384,45.8982 c -0.3271,-0.2453 -0.5319,-0.3942 -0.8589,-0.6394 7.7363,-1.2401 14.417,-1.212 22.2215,0.0246 l -0.7306,0.6368 c -7.0382,-1.1277 -13.428,-1.1551 -20.6321,-0.022 l 1e-4,0 0,0 z"
         inkscape:connector-curvature="0" />
      <path
         style="fill:#dcc89c"
         id="_74838072"
         d="m 107.484,43.064 1.1863,-0.5251 0,0.0043 c 0,0.1814 0,0.3629 0,0.5443 0,0.0439 0,0.0877 0,0.1315 -0.395,-0.0547 -0.7904,-0.1065 -1.1863,-0.155 z m -16.1523,-0.5251 0,0.0148 c 0,0.1822 0,0.3643 0,0.5464 0,0.0448 0,0.0896 0,0.1344 0.406,-0.055 0.8124,-0.1071 1.2192,-0.1559 l -1.2192,-0.5397 0,0 z m 5.8403,0.1849 -0.6814,-0.6564 0,0.4984 c 0,0.0618 0,0.1235 0,0.1853 0.2272,-0.0098 0.4542,-0.019 0.6814,-0.0273 z m 5.6707,-0.0122 0.6687,-0.6442 0,0.4844 c 0,0.0616 0,0.123 0,0.1846 -0.2229,-0.009 -0.4457,-0.0174 -0.6687,-0.0248 l 0,0 z"
         inkscape:connector-curvature="0" />
      <path
         style="fill:#5b4431"
         id="_74836912"
         d="m 94.7648,50.1374 c -0.3347,0.0324 -0.6708,0.0389 -1.0057,0.0667 l -0.8961,0.0741 0.0809,-0.8956 c 0.0643,-0.7106 0.181,-1.4151 0.2451,-2.1256 l 0.017,-0.1878 0.1032,-0.1579 c 0.329,-0.503 0.9265,-0.8541 1.537,-0.6903 0.376,0.1008 0.6585,0.3733 0.8112,0.7265 l 0.0816,0.1886 -0.0251,0.2041 c -0.0882,0.7133 -0.1824,1.4257 -0.2718,2.1387 l -0.0752,0.6003 -0.6021,0.0582 0,0 z"
         inkscape:connector-curvature="0" />
      <path
         style="fill:#dcc89c"
         id="_74835752"
         d="m 94.7284,49.7612 c -0.3322,0.0321 -0.6674,0.0386 -1.0005,0.0662 l -0.448,0.037 0.0404,-0.4478 c 0.0644,-0.7111 0.1809,-1.4145 0.2451,-2.1255 l 0.0086,-0.0939 0.0515,-0.079 c 0.2386,-0.3648 0.6721,-0.6531 1.1228,-0.5321 0.2638,0.0708 0.4555,0.2648 0.5622,0.5115 l 0.0408,0.0943 -0.0126,0.102 c -0.0881,0.713 -0.1822,1.4252 -0.2716,2.138 l -0.0376,0.3002 -0.3011,0.0291 0,0 z"
         inkscape:connector-curvature="0" />
      <path
         style="fill:#5b4431"
         id="_74833920"
         d="m 94.692,49.385 c 0.0978,-0.7799 0.1752,-1.3573 0.2715,-2.1374 -0.1975,-0.4569 -0.714,-0.393 -1.0216,0.0775 -0.0715,0.7914 -0.1736,1.3342 -0.2451,2.1256 0.4023,-0.0333 0.6849,-0.0357 0.9952,-0.0657 z"
         inkscape:connector-curvature="0" />
      <path
         style="fill:#5b4431"
         id="_74832632"
         d="m 105.038,50.1374 c 0.3347,0.0324 0.6709,0.0389 1.0057,0.0667 l 0.8962,0.0741 -0.0809,-0.8956 c -0.0643,-0.7106 -0.181,-1.4151 -0.2451,-2.1256 l -0.017,-0.1878 -0.1032,-0.1579 c -0.3291,-0.503 -0.9266,-0.8541 -1.5371,-0.6903 -0.3759,0.1008 -0.6585,0.3733 -0.8112,0.7265 l -0.0816,0.1886 0.0252,0.2041 c 0.0881,0.7133 0.1823,1.4257 0.2718,2.1387 l 0.0752,0.6003 0.602,0.0582 0,0 z"
         inkscape:connector-curvature="0" />
      <path
         style="fill:#dcc89c"
         id="_74817480"
         d="m 105.074,49.7612 c 0.3322,0.0321 0.6674,0.0386 1.0005,0.0662 l 0.4481,0.037 -0.0405,-0.4478 c -0.0643,-0.7111 -0.1809,-1.4145 -0.2451,-2.1255 l -0.008,-0.0939 -0.0516,-0.079 c -0.2386,-0.3648 -0.672,-0.6531 -1.1228,-0.5321 -0.2638,0.0708 -0.4555,0.2648 -0.5621,0.5115 l -0.0409,0.0943 0.0126,0.102 c 0.0881,0.713 0.1823,1.4252 0.2717,2.138 l 0.0376,0.3002 0.301,0.0291 0,0 z"
         inkscape:connector-curvature="0" />
      <path
         style="fill:#5b4431"
         id="_74821432"
         d="m 105.111,49.385 c -0.0979,-0.7799 -0.1753,-1.3573 -0.2716,-2.1374 0.1976,-0.4569 0.714,-0.393 1.0216,0.0775 0.0716,0.7914 0.1736,1.3342 0.2451,2.1256 -0.4022,-0.0333 -0.6848,-0.0357 -0.9951,-0.0657 z"
         inkscape:connector-curvature="0" />
    </g>
    <g
       id="Camada_x0020_1"
       transform="matrix(13.222894,0,0,14.019033,7552.6038,-4803.6223)"
       style="fill-rule:evenodd" />
  </g>
</svg>
