<svg xmlns="http://www.w3.org/2000/svg" width="600" height="420" viewBox="0 0 2362 1654"><title>Bandeira de Minas Gerais</title>
<rect fill="#fff" height="1654" width="2362"/>
<path fill="#F00" d="M1181,368l236,409,236,409h-472-472l236-409,236-409z"/>
<path fill="#000" d="M755,1025l-83-48,3-5,4-6,73,42,24-42,5,3,5,3-31,53zm38-66l-83-48,3-5,4-6,83,48-3,6-4,5zm18-30l-83-48,3-6,18-31c4-7,9-11,15-14,6-2,12-1,18,2,7,4,11,10,12,17v5c3-2,5-3,8-5,7-3,14-2,21,2,8,4,12,10,14,18,1,8-1,17-6,26l-17,28-3,6zm-67-54l26,15,11-20c4-6,5-11,5-15-1-4-4-8-8-11-4-2-8-2-12-1-3,2-7,5-10,11l-12,21zm35,20l29,17,13-23c4-6,5-12,4-16,0-5-3-8-9-11-4-3-9-3-13-2-4,2-8,7-11,13l-13,22zm77-45l-83-48,35-61,5,3,5,3-28,50,25,14,26-45,5,3,5,3-26,45,28,16,29-50,5,3,5,3-36,61zm45-77l-83-48,3-6,19-33c5-9,11-14,18-17,6-2,13-1,20,3,8,4,12,10,13,17,1,2,1,4,1,6l2-2c6-3,12-3,19,1l15,8c3,2,5,2,6,2,2,0,3,0,5-1l2,1-8,14c-1-1-3-1-6-3-3-1-6-3-10-4l-7-4c-5-3-9-4-13-3-3,1-7,5-10,10l-15,27,36,21-4,5-3,6zm-39-38l16-28c3-5,4-9,3-13s-4-7-9-10c-4-3-9-3-12-2-4,1-7,4-11,10l-15,27,28,16zm99-65l-74-43-16,28-5-2-5-3,39-68,5,3,5,3-16,28,73,42-3,6-3,6zm24-43l-65-80,4-6,4-6,100,18-3,6-4,6-29-6-19,34,19,22-3,6-4,6zm-49-78l29,34,15-26-44-8zm68-91c-5-3-11-3-15-1-5,2-10,6-13,12-4,6-5,12-5,17,1,4,3,8,8,11,3,2,6,2,9,1,3-2,7-5,12-11l12-12c7-7,12-11,18-12,6-2,12,0,18,4,8,4,12,10,13,18,1,9-1,18-7,28s-13,17-22,21c-8,3-17,2-26-3v-1l6-10c6,3,12,4,17,1,6-2,11-7,15-14s6-13,6-18-3-9-7-11c-4-3-8-3-11-2-4,1-8,5-14,11l-12,13c-6,6-11,10-16,11s-10,0-16-3c-8-4-12-11-14-19-1-8,1-17,6-26s12-15,20-18,16-2,24,2l-6,11z"/>
<path fill="#000" d="M985,1322v-85h-32v-5-6h78v6,5h-33v85h-6-7zm50,0l36-96h7,8l34,96h-7-7l-10-28h-38l-10,28h-7-6zm43-82l-16,42h30l-14-42zm66,82h-6-6v-96h9,9l28,81,27-81h9,10v96h-6-7v-81l-27,81h-6-6l-28-81v81zm101,0v-96h70v6,5h-57v30h52v5,6h-52v32h58v6,6h-71zm100,0h-6-6v-96h8,8l48,78v-78h6,6v96h-7-7l-50-79v79z"/>
<path fill="#000" d="M1306,520l3-19c-7-4-13-10-18-18-7-12-9-24-5-36s12-22,25-30c13-7,26-10,38-7,13,3,22,10,29,22s9,25,5,37-12,22-25,29c-13,8-26,10-38,7h-2v3c-1,9-2,13-2,13l-10-1zm7-44l10,1-3,15,2,1c9,1,19-1,29-6,10-6,17-14,20-23,3-8,2-17-3-26s-12-14-21-15c-9-2-19,0-29,6s-17,13-20,22-2,18,3,26c2,5,6,9,10,11l2-12zm80,108c-11,6-20,7-30,5-9-2-16-9-22-19-6-11-8-20-6-29,3-9,9-17,20-23l52-30,4,5,3,6-52,30c-8,5-12,10-14,16s-1,12,3,19,9,11,15,13c6,1,13-1,21-5l52-30,3,6,3,5-52,31zm5,80l24-14-18-31-29,4-4-6-3-6,103-14,16,29,26,45-5,3-5,3-26-45-25,15,24,41-5,3-5,3-24-42-28,16,27,47-5,3-5,3-27-47-6-10zm67-54l-48,7,15,27,39-23-6-11zm81,174c5-4,8-8,9-13,0-6-1-11-4-17-4-7-8-11-12-13-5-2-9-1-14,2-3,1-5,4-5,7-1,3,0,8,3,16l4,16c3,9,4,16,2,22-2,5-6,10-12,13-8,5-16,5-23,2-8-3-15-9-20-19-7-11-9-21-7-30,1-9,6-16,15-21h1l6,10c-6,4-10,9-11,15,0,6,1,13,6,20,4,7,8,12,12,14,5,2,9,2,14-1,4-2,6-5,7-9,0-3-1-9-3-17l-5-16c-3-9-3-15-2-20s5-9,10-12c8-5,16-6,24-3s14,9,19,18c6,9,8,18,6,26-1,8-6,15-14,20l-6-10zm-43,62l83-48,35,61-5,2-5,3-28-49-26,14,27,46-5,3-5,2-27-45-27,16,29,50-5,3-5,3-36-61zm45,77l83-48,3,6,19,33c5,9,7,17,6,23-1,7-5,13-13,17-7,4-14,5-21,3-2-1-3-2-5-3v3c0,6-3,12-10,16l-15,9c-2,2-4,3-4,4-1,1-2,3-1,5l-2,1-8-14s2-2,5-4c2-2,5-4,9-6l6-4c5-3,8-6,9-10s0-8-3-14l-16-26-36,20-3-5-3-6zm52-15l16,28c3,5,6,8,10,9,4,2,8,1,13-2s8-6,8-10c1-4,0-9-3-14l-16-27-28,16zm-9,90l102-16,3,6,4,7-66,77-3-6-4-6,19-22-19-33-29,5-3-6-4-6zm93-3l-45,8,15,26,30-34z"/>
</svg>