<?xml version="1.0" encoding="UTF-8" standalone="no"?>
<!-- Created with Inkscape (http://www.inkscape.org/) -->
<svg
   xmlns:dc="http://purl.org/dc/elements/1.1/"
   xmlns:cc="http://web.resource.org/cc/"
   xmlns:rdf="http://www.w3.org/1999/02/22-rdf-syntax-ns#"
   xmlns:svg="http://www.w3.org/2000/svg"
   xmlns="http://www.w3.org/2000/svg"
   xmlns:sodipodi="http://sodipodi.sourceforge.net/DTD/sodipodi-0.dtd"
   xmlns:inkscape="http://www.inkscape.org/namespaces/inkscape"
   id="svg2619"
   sodipodi:version="0.32"
   inkscape:version="0.44.1"
   width="2000"
   height="1400"
   version="1.0"
   sodipodi:docbase="C:\Documents and Settings\Franklin\Meus documentos\Wiki"
   sodipodi:docname="flag paraná2.svg">
  <metadata
     id="metadata2624">
    <rdf:RDF>
      <cc:Work
         rdf:about="">
        <dc:format>image/svg+xml</dc:format>
        <dc:type
           rdf:resource="http://purl.org/dc/dcmitype/StillImage" />
      </cc:Work>
    </rdf:RDF>
  </metadata>
  <defs
     id="defs2622" />
  <sodipodi:namedview
     inkscape:window-height="718"
     inkscape:window-width="1021"
     inkscape:pageshadow="2"
     inkscape:pageopacity="0.0"
     guidetolerance="10.0"
     gridtolerance="10.0"
     objecttolerance="10.0"
     borderopacity="1.0"
     bordercolor="#666666"
     pagecolor="#ffffff"
     id="base"
     width="2000px"
     height="1400px"
     inkscape:zoom="0.35824168"
     inkscape:cx="1127.5536"
     inkscape:cy="972.80695"
     inkscape:window-x="-4"
     inkscape:window-y="-4"
     inkscape:current-layer="svg2619" />
  <rect
     style="fill:white;fill-opacity:1;stroke:none;stroke-width:0.99000001;stroke-linejoin:round;stroke-miterlimit:4;stroke-dasharray:none;stroke-opacity:1"
     id="rect2635"
     width="2000"
     height="1400"
     x="0"
     y="0" />
  <g
     transform="matrix(6.060606,0,0,6.060606,21.2122,0)"
     id="g2597">
    <path
       style="fill:#008d43;fill-rule:evenodd;stroke:none"
       id="path35"
       d="M 192.62562,97.514037 L 193.69759,96.384737 L 195.10878,96.864337 L 193.42192,97.784637 L 192.62562,97.514037 z M 177.64785,100.41324 L 179.52531,93.739637 L 180.83711,94.108537 L 182.31489,99.334137 L 183.56927,94.878237 L 184.8216,95.230737 L 182.9431,101.90434 L 181.59034,101.52314 L 180.12485,96.414437 L 178.90017,100.76584 L 177.64785,100.41324 z M 194.37705,105.84994 L 192.93309,105.36004 L 192.86645,103.67324 L 190.24188,102.78264 L 189.19453,104.09134 L 187.78847,103.61384 L 192.57439,97.916837 L 193.97634,98.392337 L 194.37705,105.84994 z M 192.81727,102.42394 L 192.73939,99.680537 L 191.02588,101.81624 L 192.81727,102.42394 z M 173.18679,99.019537 L 171.67928,98.793037 L 171.31547,97.145137 L 168.57406,96.732137 L 167.77471,98.205837 L 166.30614,97.984437 L 170.0078,91.530137 L 171.47227,91.750437 L 173.18679,99.019537 z M 171.04492,95.923537 L 170.48229,93.237437 L 169.17463,95.642737 L 171.04492,95.923537 z M 156.23931,96.629637 L 156.93106,89.731537 L 159.86308,90.025637 C 160.60095,90.099437 161.12976,90.216237 161.45156,90.373037 C 161.77232,90.529837 162.01828,90.776837 162.1884,91.113037 C 162.35647,91.451237 162.42001,91.822137 162.37902,92.230037 C 162.32778,92.747637 162.13204,93.161637 161.79487,93.469037 C 161.4577,93.773437 160.98014,93.941537 160.36627,93.968137 C 160.65014,94.174137 160.8797,94.391437 161.05495,94.622037 C 161.22917,94.852537 161.45565,95.251237 161.7344,95.821037 L 162.44256,97.251737 L 160.77722,97.084637 L 159.92047,95.482837 C 159.6161,94.908937 159.40601,94.548237 159.28815,94.394537 C 159.1703,94.241837 159.04015,94.133137 158.8977,94.065537 C 158.75422,93.998937 158.52466,93.949737 158.20287,93.918937 L 157.92207,93.889237 L 157.63409,96.770037 L 156.23931,96.629637 z M 158.03275,92.788637 L 159.06167,92.891037 C 159.72985,92.957637 160.15105,92.972037 160.32322,92.933137 C 160.49437,92.893137 160.63477,92.808037 160.7434,92.679937 C 160.84998,92.550837 160.91557,92.383737 160.93607,92.176737 C 160.95964,91.944137 160.91557,91.751437 160.80592,91.595737 C 160.69626,91.440937 160.53024,91.333337 160.30785,91.271837 C 160.19717,91.246237 159.85898,91.204237 159.29328,91.147837 L 158.20697,91.039237 L 158.03275,92.788637 z M 151.0619,96.092637 L 149.54107,95.993237 L 149.03993,94.382237 L 146.27393,94.201837 L 145.60165,95.737037 L 144.11976,95.640637 L 147.26391,88.898337 L 148.74171,88.993637 L 151.0619,96.092637 z M 148.66792,93.188237 L 147.88086,90.558537 L 146.77917,93.065337 L 148.66792,93.188237 z M 134.48028,95.423437 L 134.56841,88.490437 L 136.81277,88.519137 C 137.66338,88.529437 138.21883,88.572437 138.47606,88.645237 C 138.87164,88.753837 139.20266,88.983437 139.46604,89.334937 C 139.72942,89.687437 139.85855,90.139437 139.85137,90.689737 C 139.84625,91.116037 139.76426,91.472737 139.60541,91.759637 C 139.44657,92.048637 139.24878,92.274137 139.00794,92.437037 C 138.76813,92.599037 138.52525,92.705537 138.27827,92.755837 C 137.94418,92.817237 137.45944,92.845937 136.82405,92.837737 L 135.91298,92.826537 L 135.88018,95.440837 L 134.48028,95.423437 z M 135.95295,89.682337 L 135.92733,91.647937 L 136.69287,91.657137 C 137.24525,91.664337 137.61521,91.633637 137.80173,91.562937 C 137.98824,91.493237 138.13479,91.381537 138.24343,91.227737 C 138.35001,91.074037 138.40637,90.895737 138.40842,90.690737 C 138.4115,90.439737 138.33976,90.229637 138.19321,90.063637 C 138.04871,89.898637 137.86117,89.793037 137.63571,89.750037 C 137.46866,89.715137 137.13252,89.696737 136.6283,89.690537 L 135.95295,89.682337 z " />
    <path
       style="fill:#008d43;fill-rule:evenodd;stroke:none"
       id="path31"
       d="M 114.82316,150.82634 C 114.70633,151.03544 114.70633,151.03544 114.74425,151.58984 C 114.87747,151.63184 115.0107,151.67384 115.19107,151.76304 C 115.70758,152.94464 116.25996,154.02174 116.56638,155.31714 C 117.14028,155.43294 117.4385,155.96994 117.99293,155.78344 C 117.93144,154.87644 117.54304,154.29434 117.39854,153.44374 C 117.31143,153.44984 117.22432,153.45504 117.13823,153.46014 C 116.69961,152.78064 116.30813,152.14734 115.91562,151.51504 C 115.75882,151.12044 115.64404,150.72284 115.53336,150.37644 C 115.50261,149.92344 115.51594,149.46744 115.52823,149.01134 C 115.39501,148.96934 115.30482,148.92424 115.21771,148.92944 C 114.81496,147.48854 115.06706,146.05684 114.40298,144.63234 C 115.17775,141.90214 111.87884,140.18974 111.43407,144.56774 C 111.61444,144.65694 111.83785,144.74404 112.06229,144.83114 C 112.76941,146.90944 112.53268,147.27944 110.86427,147.73854 C 110.78433,147.84514 110.70337,147.95174 110.6675,148.05524 C 109.22353,147.33684 108.98065,145.68374 110.13869,144.75014 C 110.70337,142.79274 110.61934,142.19114 111.92291,140.84454 C 111.90241,140.54224 111.88602,140.29014 111.86859,140.03904 C 109.36188,139.08494 108.85972,142.60624 109.13334,144.71324 C 109.00319,144.72144 108.91608,144.72664 108.82897,144.73274 C 108.36985,146.32944 107.03656,145.30154 106.18083,144.89984 C 105.93897,143.90364 105.93897,143.90364 105.99124,143.39534 C 107.85744,142.61954 108.09417,142.25064 109.04009,140.11694 C 109.49715,139.78494 109.96038,139.55224 110.22683,138.97934 C 109.5443,137.91054 106.9187,137.77314 105.81087,138.14724 C 105.75963,138.04884 105.75348,137.94844 105.74631,137.84794 C 104.70406,137.91354 103.70588,137.97714 102.70771,138.03964 C 102.71386,138.14104 102.72103,138.24154 102.73128,138.39324 C 101.37134,138.27634 100.22866,137.48934 99.005023,136.80884 C 98.480314,136.79144 98.002746,136.82114 97.525179,136.85184 C 97.215682,135.50624 95.702022,134.38814 94.812474,133.48324 C 94.600335,132.28324 93.04568,129.29684 93.806098,128.28744 C 93.424863,127.80574 93.424863,127.80574 92.926802,127.53414 C 92.686993,125.93134 93.337753,125.23244 94.281616,124.36334 C 94.11662,123.86834 93.995692,123.37034 93.878861,122.92244 C 93.951624,122.71544 94.068453,122.50534 94.188358,122.34654 C 94.969272,122.29634 95.511404,122.56584 96.299493,122.61704 C 96.289243,122.46544 96.282071,122.36494 96.27592,122.26454 C 97.591792,122.38344 98.442396,123.99854 99.513334,123.07104 C 99.354487,122.01854 99.243806,121.01424 99.1321,120.00994 C 99.462094,119.73634 99.792086,119.46264 100.12208,119.18804 C 99.94991,117.27774 99.80336,115.76924 98.659657,114.32524 C 95.950027,114.24324 97.248477,117.95414 96.973824,119.69124 C 95.235725,121.06654 94.975421,121.08294 93.335704,119.41654 C 93.56219,118.89594 93.791751,118.42654 94.022336,117.95724 C 95.758385,117.84654 95.863943,116.82884 96.221606,115.03544 C 96.308715,115.03034 96.395825,115.02524 96.482935,115.01904 C 96.472687,114.86844 96.465513,114.76794 96.459364,114.66654 C 96.54545,114.66134 96.632558,114.65524 96.762712,114.64704 C 96.888765,113.93174 97.489311,113.79234 97.986351,113.40704 C 97.969953,113.15494 97.952531,112.90274 97.939208,112.70194 C 95.602611,111.68634 94.123794,114.30884 92.207375,114.98724 C 91.719559,114.86634 91.231745,114.74544 90.791072,114.67264 C 90.418036,113.02674 90.057299,112.84744 91.351649,112.00704 C 92.436936,111.93844 93.33263,112.28584 94.330809,112.22234 C 95.365877,111.39834 96.674577,111.41574 97.89719,111.44034 C 99.398555,110.43394 95.161938,109.03404 94.937503,108.94694 C 94.202706,108.38644 94.202706,108.38644 92.033155,107.26014 C 90.412911,107.16074 89.316351,106.42074 88.845957,104.63044 C 88.712732,104.58844 88.622547,104.54334 88.535437,104.54844 C 88.525189,104.39774 88.518015,104.29734 88.511866,104.19594 C 87.551607,103.54924 87.658188,103.18854 87.663313,101.97404 C 87.128356,101.14804 86.810661,100.96564 86.611846,99.967437 C 86.695879,99.911137 86.778892,99.855737 86.905969,99.796337 C 86.845503,99.548337 86.785039,99.299337 86.724575,99.050237 C 85.10638,98.343137 85.635189,94.567637 85.476341,92.858237 C 85.695653,92.237237 86.644639,92.075337 87.147827,91.790437 C 87.628469,91.154037 87.628469,91.154037 87.967685,90.373037 C 89.052973,90.304437 90.179251,90.840437 91.358824,90.867037 C 91.442858,91.468637 91.905052,94.422137 92.918603,93.295837 C 92.906304,91.830337 92.767952,91.080237 93.996716,90.547337 C 93.907556,89.238637 93.178908,88.778437 92.626529,87.701337 C 92.005487,87.538437 92.005487,87.538437 91.143611,87.694237 C 90.495922,85.863837 90.830015,85.640437 92.365199,85.138337 C 92.773077,85.365837 93.185056,85.642537 93.639052,85.917137 C 94.007989,86.854837 93.809175,87.778237 94.435339,88.648337 C 94.645429,88.534537 94.89856,88.416737 95.152716,88.299837 C 95.185511,88.146137 95.222404,88.042637 95.259296,87.939137 C 95.345382,87.932937 95.432492,87.927837 95.519602,87.922737 C 95.357679,86.820037 95.323861,84.394237 94.701794,83.574437 C 94.89241,81.893737 94.89241,81.893737 95.192685,81.166037 C 95.970524,81.066637 96.548524,81.231637 97.14702,81.700037 C 97.188013,82.303637 97.23208,82.958537 97.276147,83.613337 C 95.909034,84.660737 96.127322,85.304337 96.343559,87.212537 C 96.256449,87.217637 96.169339,87.223837 96.082229,87.228937 C 96.090427,87.987337 96.090427,87.987337 96.251326,88.432037 C 96.558771,88.462837 97.468814,88.595037 97.779335,88.675937 C 99.007073,87.486137 99.36576,85.692737 101.04135,85.334037 C 100.98395,85.135237 100.32499,84.835937 100.27068,84.687337 C 99.837178,84.715037 100.10568,84.559237 99.674233,84.637137 C 99.673208,83.980237 98.971205,84.163637 99.116729,83.749637 C 100.4531,83.512937 102.18402,83.959737 101.66239,85.915137 C 100.75132,86.629437 99.725474,86.290237 98.935335,87.503537 C 98.76624,88.221937 98.600218,88.991637 98.478264,89.757137 C 98.970179,90.586237 99.653736,92.313037 100.69598,92.247437 C 100.7462,92.344837 100.84355,92.490337 100.93989,92.635937 C 101.027,92.630737 101.11411,92.624637 101.24426,92.616437 C 101.49227,93.714037 101.78537,94.807537 102.08051,95.952237 C 103.02233,96.347837 103.02233,96.347837 103.26419,96.686037 C 104.69894,95.988037 102.93727,95.088337 102.41871,94.514437 C 102.35107,93.507037 102.32545,92.497537 102.30085,91.488137 C 102.95161,90.789137 103.36769,89.852437 104.42326,89.987737 C 107.5254,92.015837 107.32761,91.674637 107.46391,95.610937 C 107.72319,96.859137 108.06138,98.000837 106.97712,98.726437 C 106.80187,100.00234 107.42906,99.607737 107.28456,100.67974 C 107.19745,100.68484 107.11034,100.69104 107.02323,100.69614 C 106.32533,103.26944 104.4991,105.91354 102.54681,107.35234 C 102.11024,107.98674 102.11024,107.98674 101.8571,108.10354 C 101.86428,108.20504 101.87043,108.30544 101.8776,108.40584 C 101.49739,108.58214 101.16022,108.75534 100.82306,108.92854 C 100.09236,111.65454 101.83456,110.98844 103.35949,110.33454 C 104.08814,108.21524 104.95309,108.10964 106.83774,108.90084 C 107.00274,109.39584 107.20975,109.88874 107.42087,110.43194 C 106.37247,112.97654 102.99671,110.76294 101.30165,112.13414 C 100.64166,113.33934 100.92452,114.94014 101.61422,116.10944 C 103.42918,117.15784 105.09759,118.62024 106.6584,116.54914 C 106.84184,116.03154 107.02426,115.51404 107.21078,115.04774 C 108.42621,114.96984 111.93316,117.17524 112.75301,118.33744 C 113.04714,120.74574 114.10988,123.56094 115.57538,125.23854 C 115.78649,125.78174 115.90332,126.22954 115.85823,126.83934 C 114.5731,129.75184 112.97335,132.53424 112.89444,135.87724 C 113.19881,135.85774 113.54623,135.83624 113.89364,135.81374 C 113.8793,135.61284 113.86905,135.46114 113.8588,135.31054 C 113.94591,135.30434 114.03302,135.29924 114.16317,135.29104 C 114.24823,133.97104 114.69403,132.82944 115.70553,132.31084 C 115.71168,132.41134 115.71885,132.51174 115.7291,132.66344 C 116.29685,132.67774 116.29685,132.67774 117.37599,133.16554 C 118.01036,134.79404 116.99783,134.65564 116.81234,135.78094 C 114.25131,135.94284 114.42143,135.88134 113.26235,138.73654 C 113.44682,141.45534 116.45877,138.93844 117.31758,141.31184 C 117.48462,141.20014 117.69471,141.08544 117.9048,140.97064 C 118.33112,139.52764 120.35617,140.46124 121.07048,138.14004 C 121.37177,138.07034 123.70017,138.98554 125.15337,139.19664 C 126.34011,139.98064 126.1331,142.06714 127.86402,142.51404 C 127.92039,142.71284 127.97778,142.91164 128.03824,143.16064 C 128.12535,143.15454 128.21246,143.14944 128.34261,143.14124 C 128.48609,143.33484 128.63367,143.57774 128.78124,143.82164 C 130.23444,144.69074 129.93007,146.63174 131.54416,147.28764 C 131.7358,148.18534 131.56363,148.85454 131.66816,149.75744 C 132.46445,150.56704 132.09756,150.94424 132.03915,152.01004 C 133.03323,153.81884 131.76552,155.06194 130.96308,156.73134 C 130.99178,157.79104 130.97641,158.85484 130.78374,159.87754 C 131.13833,159.95644 131.60667,160.43304 132.6028,160.97614 C 133.24742,160.83474 133.93507,160.69024 134.62273,160.54474 C 135.20688,160.81114 135.20688,160.81114 136.52377,160.93004 C 137.75049,159.73924 139.75709,161.02844 140.62101,160.26594 C 140.60667,160.06404 140.59744,159.91344 140.58617,159.76284 C 140.21518,159.43174 139.8442,159.10174 139.47629,158.82094 C 139.3984,157.66294 139.63411,156.63604 139.64231,155.47284 C 140.93666,154.63254 141.24206,155.26994 142.561,155.43904 C 143.78977,152.98464 145.99723,155.32324 147.4658,156.39314 C 150.33223,156.86874 150.0668,158.09954 151.98629,160.05074 C 153.77359,160.69644 153.60859,161.46504 153.96523,163.51574 C 154.24603,163.80164 154.24603,163.80164 155.26163,163.99014 C 156.53958,165.47724 157.82983,163.92874 158.87515,165.83484 C 159.05654,166.58194 159.05654,166.58194 158.92332,167.19684 C 157.00485,168.48194 156.82448,170.97124 158.77984,172.16214 C 161.14206,172.26564 163.43664,172.67654 165.76811,172.32604 C 165.77425,172.42754 165.78143,172.52794 165.78758,172.62844 C 166.54287,172.83334 166.54287,172.83334 168.50028,172.76064 C 169.5702,173.09674 170.64217,173.48414 171.75818,173.86844 C 174.23313,173.71164 176.58614,172.39884 178.99344,171.89254 C 179.91065,171.27774 180.50096,170.33074 179.35111,169.44224 C 179.02828,168.55274 178.7106,167.71234 178.39186,166.87304 C 178.79052,165.68524 178.88276,164.46464 179.55298,163.41114 C 179.72619,162.83114 180.21195,162.03584 180.39131,161.32974 C 180.69054,160.15424 180.76536,159.10484 181.72767,158.82304 C 181.92956,159.87244 182.35382,160.35104 182.88982,161.17704 C 183.01382,161.72534 183.1409,162.32384 183.31307,162.92024 C 183.39916,162.91414 183.48626,162.90904 183.61641,162.90084 C 183.63692,163.20314 183.66151,163.55564 183.72811,163.90514 C 184.71195,165.56224 183.48729,166.14534 183.27925,167.57504 C 183.28642,167.67544 183.29255,167.77584 183.29975,167.87734 C 182.80272,168.26264 182.35178,168.69614 181.90189,169.12864 C 182.01973,169.57654 182.01973,169.57654 182.34358,169.85934 C 182.85087,169.62464 182.98718,169.05994 183.58464,168.87034 C 183.64819,168.51274 183.75476,168.15194 183.86033,167.79124 C 183.9874,167.73184 184.11448,167.67344 184.28459,167.61194 C 184.30407,167.25734 184.36659,166.89864 184.43319,166.59114 C 187.32319,164.83974 188.83482,165.90764 186.11391,162.43864 C 186.2082,161.42814 187.15923,160.36234 187.61629,159.33954 C 188.26398,157.89044 188.50686,156.48954 188.97623,155.12654 C 189.19348,155.11314 189.41077,155.09884 189.67106,155.08244 C 190.53807,156.29174 190.53807,156.29174 190.89675,157.07874 C 190.98284,157.07264 191.06996,157.06754 191.2001,157.05934 C 191.27491,158.16714 191.70329,158.69594 192.19929,159.57524 C 192.19007,160.08154 192.18394,160.63794 192.22083,161.19244 C 191.21036,161.71094 189.47533,163.13654 189.12585,164.42264 C 191.29847,164.94224 191.57212,162.63844 193.26511,161.87394 C 193.25384,161.72224 193.2477,161.62184 193.24052,161.52134 C 193.74781,161.28674 196.12028,160.43304 196.24633,159.71664 C 196.33344,159.71054 196.42054,159.70544 196.55068,159.69724 C 196.45232,158.89474 195.97474,158.02064 195.92351,157.26534 C 195.01859,155.50154 195.90711,154.78424 196.66239,153.06764 C 197.81327,152.03354 197.91986,150.05874 199.29312,149.71854 C 199.56881,151.21884 200.65204,152.41374 201.14499,153.89974 C 199.81373,154.18674 199.55752,154.91124 199.22549,156.44954 C 198.72435,156.78464 198.35131,157.06134 198.08486,157.63424 C 198.1822,157.77974 198.32158,157.92224 198.46303,158.06564 C 199.12607,157.56864 199.38022,157.45084 199.57905,156.52744 C 200.50343,156.01404 200.74427,155.69524 201.24029,154.65304 C 201.71479,154.57204 202.62277,154.46344 202.7519,153.79834 C 204.79847,153.11174 205.46665,153.32284 205.51994,150.89194 C 205.01779,149.91224 205.01779,149.91224 204.73185,148.91814 C 204.64577,148.92424 204.55865,148.92944 204.47155,148.93454 C 204.45823,148.73364 204.44799,148.58304 204.43772,148.43134 C 204.52484,148.42624 204.61196,148.42104 204.69803,148.41494 C 204.80258,146.73934 205.80996,145.51264 205.86737,143.78884 C 205.95447,143.78374 206.04056,143.77864 206.12768,143.77244 C 206.31008,142.59804 206.67184,141.51274 207.86986,142.44844 C 209.2503,146.10394 209.2503,146.10394 209.64588,146.78644 C 211.26611,146.88594 211.99375,146.68814 213.2676,145.54544 C 213.18972,144.38734 211.81132,142.70464 210.98839,142.15024 C 211.02017,140.68064 211.51617,139.63834 211.95173,138.34604 C 212.04705,137.17674 212.252,135.69684 213.21329,135.07994 C 214.46049,136.11394 215.26805,137.73114 215.68414,139.37394 C 216.82374,140.11084 219.30893,137.52514 219.50775,136.60284 C 218.26669,135.01234 217.34229,133.85734 217.19267,131.64164 C 217.75939,126.16604 218.2093,127.42654 219.15008,128.73524 C 219.88898,129.80314 222.21841,131.06264 222.0237,131.75854 C 220.68423,131.87434 220.53155,134.15964 220.78161,135.46014 C 221.03269,135.29204 221.32579,135.12194 221.6199,134.95184 C 221.84434,133.91164 222.57914,132.88684 222.55454,131.86614 L 223.40105,130.46924 C 224.3203,130.23764 224.34184,129.40034 223.83659,127.78114 C 223.15201,127.31894 222.51047,126.85374 221.86792,126.38944 C 221.30735,124.55294 221.27557,120.86364 221.71417,118.96464 C 221.88432,118.90314 222.09748,118.83854 222.31474,118.82524 C 223.17456,119.93414 224.03542,121.04294 224.94134,122.19894 C 225.05716,123.91144 224.70052,124.43924 225.51116,126.10764 C 226.33615,126.05534 225.96925,123.85304 225.92518,123.19814 C 227.98917,120.84204 227.98917,120.84204 228.17571,120.37574 C 227.14574,119.32844 225.70587,119.31814 224.78866,118.01054 C 224.42588,116.51634 223.10898,113.81894 223.88887,112.45394 C 225.79914,112.33294 226.64564,113.23994 228.17057,114.50974 C 229.01194,116.63004 230.81563,112.36884 231.08209,111.79594 C 230.96321,110.03324 227.84262,109.67464 226.81268,108.62824 C 226.31666,107.09104 225.81964,105.55484 225.3236,104.01864 C 226.51753,102.98254 226.62103,103.22844 227.94512,104.10574 C 229.95068,104.73704 230.82897,104.83334 230.92222,107.50714 C 231.19073,108.24904 231.22146,108.16294 231.53609,108.95214 C 231.47357,109.30974 231.45411,109.66534 231.4377,110.07014 C 231.57811,110.21364 231.71851,110.35614 231.86198,110.54984 C 232.04339,110.63894 231.90401,110.08044 232.08743,110.22084 C 232.50454,109.94104 232.72693,110.08454 232.64598,109.53424 C 232.55579,109.48914 232.59166,109.08734 232.50454,109.09254 C 232.21656,108.04924 232.41539,108.01954 232.42768,106.90654 C 232.29754,106.91474 232.21043,106.91984 232.12433,106.92504 C 232.01776,105.36414 232.26267,105.39904 232.99543,103.98784 C 232.7833,102.78674 232.57629,102.95174 231.7011,102.90664 C 231.69084,102.75504 231.68367,102.65454 231.67752,102.55414 C 230.3104,101.67994 230.3104,101.67994 227.92666,100.61724 C 227.6018,99.676437 227.59666,98.940637 227.48496,97.936237 C 227.57207,97.931137 227.47165,97.763037 227.60283,97.754837 C 227.44705,96.753637 227.21954,95.958337 227.18776,94.847437 C 227.75141,94.811637 227.88875,94.904837 228.43086,95.173337 C 228.43703,95.273737 228.4442,95.375237 228.45446,95.525937 C 229.97836,96.137737 231.33831,96.253537 232.56194,97.591937 C 232.6142,99.005137 232.33647,100.69204 233.19631,101.79984 C 233.40946,101.73634 233.62673,101.72194 233.88702,101.70554 C 233.92392,101.60204 234.00386,101.49544 234.08381,101.38994 C 233.85219,98.622937 233.08153,96.244337 235.21929,94.338137 C 234.86779,93.653537 232.42666,93.655637 231.4664,93.008937 C 229.99064,93.102137 230.04701,92.643037 229.58994,91.054637 C 229.50387,91.059737 229.41677,91.064837 229.32965,91.071037 C 228.95559,90.049237 227.59974,88.702637 227.51776,87.493337 C 229.64939,86.706237 231.23581,87.662437 232.86221,87.863337 C 233.42278,87.119237 233.60214,86.551537 233.88498,85.572837 C 235.46937,84.511137 233.68924,82.045337 236.2267,81.529937 C 236.93792,83.659437 237.65223,85.839237 238.36652,88.020137 C 238.49463,88.189237 238.51103,88.585837 238.72624,88.651337 C 240.04621,89.050037 242.87677,87.677837 244.09323,87.382637 C 244.1947,87.579437 244.39453,87.536337 244.53903,87.729037 C 243.25187,89.328837 242.52833,90.233737 241.92677,92.294637 C 241.29547,92.638937 240.66521,92.982237 240.07798,93.322537 C 237.96069,93.608437 236.54236,94.558437 237.17773,97.501737 C 236.26973,97.610337 236.59359,97.893237 236.56898,98.804337 C 235.98177,99.802437 235.03177,100.57114 235.81166,101.78554 C 237.49852,102.16674 237.39808,98.676237 238.19641,97.740537 C 238.19026,97.640137 238.18309,97.538637 238.17694,97.438237 C 238.34296,97.326537 238.51309,97.265037 238.72727,97.201437 C 238.7201,97.100037 238.71395,96.999537 238.70678,96.899137 C 239.46411,96.497437 241.66646,94.890537 242.42174,95.095437 C 242.88191,96.735137 240.96753,99.385337 240.43257,101.13884 C 238.85127,102.25074 236.69709,102.64024 235.63436,104.32604 C 235.75529,104.82414 235.87621,105.32214 235.99715,105.82024 C 236.08425,105.81404 236.17137,105.80894 236.25744,105.80384 C 236.26463,105.90424 236.27179,106.00474 236.28203,106.15634 C 237.67786,106.16864 239.73569,106.29164 240.89683,105.40824 C 241.15712,105.39184 241.41743,105.37544 241.68182,105.40924 C 241.7013,105.71164 241.76586,106.01084 241.8294,106.31014 C 241.36618,107.19864 240.78613,107.64034 240.03903,108.19374 C 238.57867,110.46064 238.57867,110.46064 238.2087,110.78754 C 236.05862,111.22724 233.42893,110.38274 233.64313,113.55564 C 234.00181,114.34164 234.36357,115.17894 234.72535,116.01514 C 235.89467,115.89114 237.69116,115.37264 238.94248,115.19124 C 239.0798,117.20604 236.51058,119.18904 235.23262,120.28254 C 231.73594,120.80724 231.20097,119.98124 230.75209,123.65114 C 230.89557,123.84374 231.03904,124.03744 231.2266,124.22814 C 231.95831,124.08054 232.37541,123.80074 232.99954,123.35704 C 234.12478,123.23504 235.25005,123.11304 236.41937,122.98804 C 236.47674,123.84484 235.78296,124.54584 235.29309,125.03154 C 234.59928,128.31304 230.61888,128.76804 228.1347,129.43114 C 228.14187,129.53154 228.14804,129.63194 228.15521,129.73344 C 226.81986,129.96914 226.83011,130.12084 226.76143,131.69184 C 225.98257,133.05694 222.7923,134.87704 223.21863,136.67044 C 224.52118,136.58844 225.59417,135.05334 226.20701,133.80094 C 227.74938,133.40024 229.68936,133.07434 231.21737,133.73644 C 231.24811,134.18934 231.22453,134.49474 231.03189,134.86064 C 229.48644,135.86904 228.21567,137.06194 226.80039,138.06214 C 225.32465,138.15544 223.84889,138.24974 222.41619,138.33994 C 221.76544,139.03884 221.41186,141.51784 221.65988,142.61544 C 223.14997,142.72304 224.84604,142.03024 226.19984,142.70254 C 226.21009,142.85324 226.2234,143.05514 226.28081,143.25394 C 225.83397,143.73664 225.39024,144.27054 224.99055,144.80244 C 222.88762,145.94714 222.41825,147.39314 219.72194,146.85514 C 217.80245,147.48334 216.35128,146.00764 215.07846,148.46514 C 215.14714,149.47254 215.04466,150.54044 215.6206,151.31314 C 216.75917,151.39304 217.89877,151.47194 219.03735,151.55194 C 219.04453,151.65234 219.0517,151.75274 219.06196,151.90444 C 219.14803,151.89834 219.23513,151.89314 219.32227,151.88804 C 219.33251,152.03874 219.34275,152.18934 219.35607,152.39124 C 218.88876,152.57264 218.42554,152.80424 218.00434,153.03384 C 216.17297,154.31274 214.10796,156.01094 211.93637,156.14924 C 210.20544,155.70244 208.41814,155.05784 206.71592,155.67064 C 205.10797,157.03674 204.05036,158.16614 202.12062,158.64264 C 201.71376,159.07304 201.38684,159.39694 200.82934,159.53324 C 200.84266,159.73514 200.85701,159.93704 200.87339,160.18814 C 201.42783,160.00154 201.72809,159.93184 202.35016,160.09484 C 204.52893,158.79334 205.89093,158.30244 208.29414,159.66744 C 208.85881,159.63164 209.41938,159.54554 209.81191,160.17784 C 209.6428,161.55414 204.41928,163.60484 203.05012,163.99534 C 201.24849,163.14884 200.04125,162.06144 198.10127,162.38734 C 197.47714,162.83114 196.91758,163.57514 195.96347,164.29254 C 195.27889,164.48824 193.32865,164.66144 193.09909,165.78874 C 192.58566,165.92304 191.22366,166.41384 191.67562,167.29524 C 192.10603,167.21734 192.5375,167.13944 193.01506,167.10974 C 193.08065,166.80124 193.43832,166.47534 193.50493,166.16794 C 194.0614,166.03164 194.33195,165.96404 194.93659,165.87484 C 196.68188,164.60094 199.28903,166.40774 201.15011,166.84634 C 201.15728,166.94684 201.16446,167.04824 201.1747,167.19894 C 201.61128,167.22144 201.61128,167.22144 201.7158,167.46844 C 200.49114,168.05154 199.31567,168.73304 197.97008,168.81814 C 195.737,169.97104 194.97964,170.37274 192.63997,169.30794 C 190.40893,169.19624 189.61981,168.48814 188.88502,171.16394 C 186.93992,172.04634 185.70807,170.60744 183.83776,172.59664 C 183.97817,172.73914 184.11859,172.88254 184.26206,173.07524 C 185.95505,172.96864 188.05594,173.67474 189.07565,171.99204 C 189.5737,172.26354 190.12915,172.14774 190.63132,172.46954 C 192.54056,172.34864 194.5605,173.83874 196.47178,174.37474 C 196.48204,174.52634 196.49534,174.72824 196.50868,174.92914 C 195.08725,175.17104 193.48443,175.98064 192.23005,176.76874 C 191.11095,176.99104 188.68416,177.85294 188.13998,178.19014 C 186.11288,177.86424 184.93741,175.96624 183.17268,175.01624 C 182.2247,173.25564 180.85555,172.98814 179.27014,174.04984 C 178.83663,174.07754 178.4052,174.15544 177.97476,174.23324 C 177.96451,174.08164 177.95733,173.98114 177.9512,173.88074 C 176.73575,174.61454 175.65047,174.68314 175.76012,176.29524 C 177.13339,177.26984 179.32137,179.30614 180.82481,179.61564 C 180.83094,179.71604 180.83812,179.81654 180.84837,179.96814 C 181.71641,179.91284 183.21162,181.38554 183.94437,181.89584 C 185.7091,182.84584 187.5169,183.79284 189.3257,184.74074 C 189.33185,184.84124 189.34209,184.99184 189.35236,185.14354 C 189.05003,185.54634 188.54888,185.74404 188.42693,185.71744 C 188.35315,185.70204 188.62471,185.55144 188.57247,185.46534 C 188.48842,185.32694 188.4095,185.13744 188.26706,185.02674 C 188.0949,184.89244 187.71981,184.85044 187.70238,184.59014 C 186.37934,184.37084 183.47806,183.39214 182.43889,184.77254 C 183.09171,186.04644 185.12699,185.62314 186.28301,185.95524 C 187.1049,185.85174 188.07746,185.51244 188.21787,185.65494 C 187.49844,186.61114 184.23029,186.12534 183.31206,186.08334 C 180.05619,184.36774 178.05471,181.20724 174.7886,179.34104 C 173.92877,178.23214 172.57908,177.60904 171.39849,176.92554 C 169.81923,177.43074 168.18668,177.78634 167.01327,179.12574 C 164.30671,180.35864 161.51612,182.30584 159.96761,185.18554 C 158.8936,186.06284 150.75343,188.19754 151.2269,184.88014 C 152.05188,184.82794 152.79898,184.27654 153.36878,183.68424 C 154.64776,183.24964 155.53116,182.12954 156.65231,181.29944 C 156.64514,181.19904 156.63796,181.09854 156.67486,180.99504 C 157.8903,180.91714 158.70401,180.05634 159.91022,179.82884 C 162.55324,178.29564 162.55324,178.29564 163.91728,177.19704 C 165.37355,176.80154 165.37355,176.80154 167.48264,175.75824 C 167.46213,175.45594 167.44164,175.15354 167.42421,174.90144 C 162.7582,174.23634 162.7582,174.23634 162.26014,173.96474 C 160.92787,174.25174 158.12908,174.78264 156.89622,173.95044 C 155.46352,174.04164 155.6818,175.34314 156.28132,176.46844 C 157.00383,176.82714 157.72838,177.23604 158.49699,177.64184 C 158.64354,179.80724 157.33587,179.89034 155.90214,179.32354 C 155.62954,177.87444 155.20834,176.08104 154.47251,174.86354 C 154.16814,174.88304 153.86479,174.90144 153.60346,174.91784 C 153.05518,176.47044 153.85147,177.93704 152.89224,179.21184 C 150.71756,179.29894 150.71756,179.29894 150.44701,179.16474 C 149.84237,176.67334 152.58787,176.65184 152.43722,174.43624 C 150.70117,174.54584 149.72041,175.51844 148.50292,176.85994 C 146.29033,177.65724 143.99883,177.95444 141.63764,177.85194 C 140.2408,177.18174 139.44759,176.42234 137.88474,176.52174 C 137.04541,175.71514 136.7974,175.27554 135.73056,174.33164 C 134.34705,173.86334 133.80594,173.59384 133.22589,172.11394 C 132.487,171.50314 131.22749,170.92514 130.93849,169.88184 C 131.55851,168.72994 130.48449,167.68574 130.92312,166.44364 C 131.13321,166.32984 131.39044,166.26224 131.64767,166.19564 C 131.65484,166.29604 131.66099,166.39754 131.67226,166.54814 C 132.53312,166.39234 133.6184,166.32374 134.17898,165.57964 C 133.86333,164.79054 133.95249,164.17774 133.64095,163.43984 C 133.04655,163.02174 133.04655,163.02174 130.70996,162.00714 C 129.02412,160.29264 127.89682,161.02234 126.47026,163.13544 C 126.81153,166.24894 127.1364,166.53174 124.25665,166.51224 C 123.48188,164.08344 125.4024,164.11314 125.61044,162.02664 C 126.09006,161.38914 126.75004,160.84194 126.94066,160.42484 C 126.79001,160.13074 126.6824,159.83454 126.5789,159.58854 C 126.05726,159.62134 125.53665,159.65414 125.05908,159.68494 C 124.60714,158.80354 122.59746,160.04254 122.01434,160.43404 C 121.18218,160.38584 120.39717,160.38484 119.61215,160.38384 C 118.98906,158.90604 118.19482,159.41234 116.93941,159.54244 C 116.93224,159.44104 116.92507,159.34054 116.91892,159.24014 C 115.54873,158.97264 114.68276,157.76334 113.25518,157.29704 C 113.15167,157.05114 113.04714,156.80514 112.99078,156.60634 C 112.23548,156.40134 110.33546,154.09454 109.88659,153.26334 C 109.97472,151.99254 110.18994,150.66444 110.01469,149.36084 C 111.22296,149.18254 113.28285,148.04084 114.34252,148.88434 C 114.47369,149.53304 114.64791,150.17964 114.82316,150.82634 z M 213.68983,140.78304 L 214.02802,140.69394 L 214.35697,141.30774 L 214.09361,141.65724 L 213.63653,141.68694 L 213.68983,140.78304 z M 153.93346,186.22574 C 153.5594,185.84454 153.21198,185.86704 152.72724,185.79634 C 152.75696,185.59244 152.78668,185.38844 152.8205,185.23474 C 153.80125,184.91914 156.70663,184.02654 157.61872,184.62704 C 157.58592,184.78074 157.7294,185.20504 157.69661,185.35874 C 157.26208,185.38544 157.13603,185.41824 156.98538,185.78204 C 155.95441,185.99924 154.91831,185.96134 153.93346,186.22574 z M 151.81617,178.77424 C 151.48413,178.38994 151.48413,178.38994 151.41752,178.04054 C 151.91661,177.04844 152.17486,177.63874 152.22918,178.44424 C 152.06213,178.55594 151.93915,178.66564 151.81617,178.77424 z M 146.00646,175.39954 C 144.08081,174.66164 142.22076,174.88094 140.49291,173.82744 C 140.28795,172.72784 140.28795,172.72784 140.35456,172.42034 C 141.10166,172.52494 141.116,172.72574 141.63764,173.35094 C 143.07751,173.36014 144.33087,173.83774 145.72668,173.85004 C 146.83656,174.13384 147.83986,173.51384 148.78577,173.95964 C 148.80012,174.16054 148.81344,174.36244 148.87083,174.56124 C 147.99666,175.17204 147.0446,175.28374 146.00646,175.39954 z M 138.20038,172.80984 C 137.42459,172.30254 137.23705,172.11194 136.86504,171.12394 C 137.15506,170.24574 138.15427,170.84014 138.6554,171.16294 C 138.68307,171.56564 138.71382,172.01864 138.74456,172.47164 C 138.53345,172.58644 138.36743,172.69814 138.20038,172.80984 z M 155.61519,170.49164 C 155.12328,169.66364 154.90191,168.96984 155.13352,167.89274 C 155.47377,167.76974 155.63774,167.60784 156.00155,167.83734 C 156.05996,168.69414 156.09481,169.85424 155.61519,170.49164 z M 136.08617,170.56644 C 135.16691,169.86654 133.36424,168.36314 134.40444,166.98164 C 134.6217,166.96834 134.83897,166.95394 135.10235,166.98784 C 135.26734,167.48274 135.16076,167.84354 135.23762,168.34464 C 135.90785,169.21264 136.26859,169.39204 136.57297,170.03054 C 136.41002,170.19244 136.24605,170.35434 136.08617,170.56644 z M 125.30812,165.94044 C 125.17079,165.84714 125.03449,165.75494 124.94431,165.70984 C 124.91663,165.30704 124.91663,165.30704 125.10623,164.89104 C 125.28045,164.87974 125.45364,164.86844 125.62786,164.85824 C 125.68423,165.05604 125.74469,165.30504 125.80515,165.55504 C 125.63811,165.66574 125.47209,165.77854 125.30812,165.94044 z M 148.51932,162.29414 C 147.72303,161.48454 146.22782,161.93334 145.20197,161.59414 C 144.7367,161.16784 144.7367,161.16784 143.97116,160.81224 C 143.95784,160.61034 143.94759,160.45964 143.93734,160.30804 C 144.64857,159.85914 148.87083,160.40024 148.81344,162.12294 C 148.68637,162.18244 148.60233,162.23774 148.51932,162.29414 z M 136.85992,162.67844 C 136.68262,162.63944 136.54939,162.59744 136.41514,162.55544 C 136.35878,162.35664 136.30446,162.20804 136.29421,162.05734 C 136.67852,161.93134 137.06283,161.80624 137.49018,161.67814 C 137.77098,161.96414 137.77098,161.96414 137.78738,162.21524 C 137.50453,162.53694 137.50453,162.53694 136.85992,162.67844 z M 142.48209,160.70354 C 142.24741,160.46584 142.19104,160.26704 142.25048,159.85914 C 142.72395,159.77814 143.04779,159.40414 143.50589,159.72894 C 143.39213,159.98924 143.32654,160.29674 143.25993,160.60414 C 142.99963,160.62054 142.73932,160.63694 142.48209,160.70354 z M 121.66077,159.09054 C 121.24367,158.71234 120.86859,158.33214 120.4976,158.00114 C 120.48735,157.85044 120.52424,157.74694 120.56011,157.64344 C 121.40867,157.28684 122.62103,157.81664 123.55055,158.01034 C 123.56387,158.21124 123.57719,158.41314 123.59461,158.66524 C 122.95,158.80664 122.30539,158.94904 121.66077,159.09054 z M 125.11033,158.51764 C 124.93406,158.47864 124.75676,158.43974 124.57947,158.39974 C 124.56614,158.19894 124.5518,157.99704 124.54257,157.84634 C 124.75574,157.78184 125.01604,157.76544 125.27635,157.74904 C 125.28967,157.95094 125.30402,158.15174 125.32144,158.40384 C 125.23433,158.40904 125.15029,158.46534 125.11033,158.51764 z M 213.00114,150.61934 C 213.41518,150.29034 213.41518,150.29034 213.8456,150.21244 C 213.86303,150.46354 213.92349,150.71254 213.98395,150.96164 C 213.85688,151.02004 213.7298,151.07944 213.64679,151.13484 C 213.57708,151.39204 213.55352,151.69744 213.53097,152.00184 C 213.36086,152.06334 213.19382,152.17504 213.02677,152.28674 C 212.31246,152.68644 212.06549,152.90364 211.24052,152.95694 C 210.6707,153.54824 210.6707,153.54824 210.33046,153.67124 C 210.146,153.53184 209.96256,153.39144 209.78217,153.30234 C 209.76373,152.39224 212.30119,151.22094 213.00114,150.61934 z M 207.57265,152.22834 C 207.51221,151.97924 207.49887,151.77734 207.48454,151.57654 C 207.61469,151.56834 207.78891,151.55704 207.9621,151.54574 C 207.97234,151.69744 207.98669,151.89834 208.00001,152.10024 C 207.82581,152.11044 207.69975,152.16984 207.57265,152.22834 z M 118.12924,157.79714 C 118.34855,157.17714 118.34855,157.17714 118.41414,156.21174 C 118.58426,156.15034 118.79844,156.08674 119.01468,156.07244 C 119.42973,156.40034 119.42973,156.40034 119.64392,156.99374 C 119.33853,157.61984 118.72978,157.65884 118.12924,157.79714 z M 128.80174,156.36244 C 128.78431,156.11034 128.76792,155.85924 128.79764,155.65424 C 128.92471,155.59584 129.05077,155.53744 129.17784,155.47904 C 129.25471,155.32224 129.33054,155.16544 129.41151,155.05884 C 129.54473,155.10194 129.67899,155.14394 129.85525,155.18284 C 129.83066,156.09494 129.5642,156.66784 128.98313,157.10954 C 128.92266,156.86054 128.8622,156.61144 128.80174,156.36244 z M 208.09839,150.98104 C 207.50195,149.24914 208.28696,149.24914 208.71226,147.80614 C 208.97257,147.78974 209.23287,147.77344 209.49318,147.75704 C 209.52496,148.86794 208.84857,149.82094 208.52575,150.85294 C 208.35254,150.86324 208.22548,150.92264 208.09839,150.98104 z M 129.91674,153.51034 C 129.83886,153.00924 129.76199,152.50804 129.68718,152.05814 C 129.4566,151.87064 129.22601,151.68314 129.04155,151.54274 C 129.02515,151.29054 129.00773,151.03954 128.9944,150.83764 C 129.73228,150.79044 130.54086,151.14404 130.86265,152.03464 C 130.70278,152.24674 130.54291,152.45884 130.38304,152.67104 C 130.43325,152.76944 130.48654,152.91804 130.54086,153.06554 C 130.80834,153.80754 130.71918,154.42044 130.01103,154.26254 C 129.95056,154.01354 129.93314,153.76244 129.91674,153.51034 z M 218.38454,145.12014 C 218.13961,144.73074 218.13961,144.73074 218.19906,144.32284 C 219.21056,143.80324 219.48931,142.11634 220.90561,142.43104 C 220.97326,142.59294 221.27249,142.74564 221.20074,142.88904 C 220.94559,143.40154 219.68913,143.85344 219.57539,144.69074 C 219.14803,144.81884 218.76476,144.94384 218.38454,145.12014 z M 128.05771,147.30604 C 128.05054,147.20564 128.04337,147.10524 128.08436,147.05194 C 128.21451,147.04374 128.34466,147.03554 128.47482,147.02734 C 128.80891,146.80394 128.84478,146.70044 129.32952,146.77014 C 129.55396,147.51514 129.55396,147.51514 129.50784,148.12494 C 129.13071,148.35034 128.5978,148.84024 128.15302,148.71624 C 128.14277,148.56554 128.13253,148.41394 128.12535,148.31344 C 127.8589,148.22944 127.59142,148.14544 127.32394,148.06134 C 127.00522,147.22104 127.00522,147.22104 126.95398,146.46574 C 127.32189,146.74654 127.6898,147.02634 128.05771,147.30604 z M 215.59396,141.90834 C 215.53348,141.65934 215.47303,141.41024 215.41255,141.16124 C 215.58268,141.09974 215.79688,141.03624 216.01413,141.02184 C 216.02746,141.22374 216.04486,141.47484 216.06126,141.72694 C 215.89115,141.78844 215.72103,141.84994 215.59396,141.90834 z M 124.44829,143.59004 C 124.8162,143.87084 125.65143,143.96924 126.46719,144.42324 C 126.48461,144.67534 126.54815,144.97464 126.61169,145.27384 C 126.30732,145.29334 126.00705,145.36304 125.70677,145.43274 C 125.65348,145.28414 125.60327,145.18574 125.55305,145.08834 C 125.20153,145.05964 124.85515,145.08224 124.55077,145.10064 C 124.44009,144.75424 124.32941,144.40684 124.21873,144.06044 C 124.29559,143.90364 124.37143,143.74684 124.44829,143.59004 z M 107.10214,144.99304 C 106.97199,144.34434 106.97199,144.34434 107.11752,143.93034 C 107.33478,143.91694 107.55204,143.90264 107.7693,143.88934 C 107.7857,144.14144 107.80312,144.39254 107.82055,144.64464 C 107.56639,144.76244 107.31326,144.87934 107.10214,144.99304 z M 124.13879,142.24444 C 123.10065,142.36134 122.98074,142.52014 122.37917,142.65954 C 121.83192,142.28954 121.28671,141.96984 120.74151,141.65114 C 120.76815,141.39594 120.79787,141.19194 120.87064,140.98494 C 121.86984,140.92144 123.06273,141.14994 123.96457,141.59784 C 124.02197,141.79664 124.07833,141.99544 124.13879,142.24444 z M 108.18743,137.18694 C 107.57869,136.56794 106.85414,136.81704 106.17571,136.45524 C 106.49647,134.10844 109.88966,136.57314 108.18743,137.18694 z M 104.6354,136.24924 C 103.25189,135.77994 102.46277,135.07174 101.18585,134.24264 C 101.20839,133.93724 101.20839,133.93724 101.5722,133.50994 C 102.32033,133.61444 102.37054,133.71184 102.93317,134.28364 C 103.78172,134.58394 104.63335,134.93444 105.486,135.28494 C 105.45628,135.48884 105.42656,135.69274 105.44296,135.94494 C 105.14268,136.01454 104.88955,136.13144 104.6354,136.24924 z M 111.03849,134.22424 C 110.75769,133.93934 110.58962,133.39304 110.91653,133.06924 C 111.05079,133.11124 111.18401,133.15324 111.31724,133.19534 C 111.33159,133.39714 111.34491,133.59804 111.4023,133.79684 C 111.2783,133.90554 111.15839,134.06534 111.03849,134.22424 z M 229.07857,125.98264 C 229.06114,125.73044 229.08778,125.47634 229.1175,125.27244 C 229.24765,125.26314 229.3778,125.25494 229.50796,125.24784 C 229.7529,125.63624 230.36881,126.05944 230.31656,126.56884 C 230.18947,126.62824 229.77748,126.64564 229.69345,126.70204 C 229.32042,126.97874 229.04371,127.40094 228.65327,127.42554 C 228.68914,126.66514 228.67785,126.51344 229.07857,125.98264 z M 99.954009,132.80274 C 99.68038,132.61834 99.449797,132.43074 99.21921,132.24324 C 99.163871,131.43774 99.380109,130.76644 99.546131,129.99684 C 99.713176,129.88514 99.883295,129.82464 100.09748,129.76004 C 100.10363,129.86054 100.11081,129.96094 100.12105,130.11264 C 100.20816,130.10644 100.29527,130.10134 100.42543,130.09314 C 100.51664,130.79514 100.65089,131.49514 100.78924,132.24424 C 100.46539,132.61934 100.46539,132.61934 99.954009,132.80274 z M 96.254399,132.88584 C 96.240051,132.68494 96.269772,132.48104 96.303592,132.32724 C 96.560821,132.25964 96.817026,132.19304 97.078358,132.17664 C 97.091679,132.37744 97.105003,132.57934 97.122424,132.83144 C 96.818052,132.85094 96.514703,132.86944 96.254399,132.88584 z M 112.9918,128.94224 C 112.61057,128.46064 112.74994,127.94614 112.88932,127.43174 C 112.97643,127.42654 113.06354,127.42044 113.19369,127.41224 C 113.19984,127.51364 113.20701,127.61414 113.21726,127.76474 C 113.30437,127.75964 113.39456,127.80474 113.52778,127.84674 C 113.50216,128.10094 113.51856,128.35304 113.53906,128.65534 C 113.32487,128.71884 113.15885,128.83054 112.9918,128.94224 z M 98.414725,128.09684 C 98.147246,128.01274 97.923835,127.92564 97.699399,127.83854 C 97.627662,126.78094 98.462892,126.87934 99.212037,126.98384 C 99.228434,127.23594 99.245856,127.48704 99.263278,127.73914 C 98.966078,127.85904 98.66888,127.97894 98.414725,128.09684 z M 228.92484,118.55774 C 228.20235,118.19904 228.43906,116.71614 228.43086,115.95774 C 228.73115,115.88814 229.05294,115.76004 229.40036,115.73744 C 229.36859,116.54804 229.57354,117.16294 229.54383,118.02384 C 229.41367,118.03304 229.01093,118.55264 228.92484,118.55774 z M 232.6142,118.32414 C 232.53323,117.11484 233.05386,115.48944 234.11864,115.11844 C 234.16374,115.29264 234.53471,116.10224 234.54805,116.25904 C 234.58801,116.72744 233.87166,117.09434 233.74254,117.59444 C 233.61544,117.65384 233.53243,117.70924 233.4484,117.76554 C 233.45559,117.86604 233.46276,117.96644 233.473,118.11814 C 233.17273,118.18784 232.87143,118.25744 232.6142,118.32414 z M 110.79766,124.22604 C 110.73719,123.97704 110.71977,123.72594 110.70235,123.47384 C 110.83352,123.46564 111.00672,123.45434 111.17991,123.44414 C 111.19426,123.64494 111.20758,123.84684 111.22091,124.04774 C 111.05079,124.10924 110.92473,124.16764 110.79766,124.22604 z M 235.01228,108.66414 C 234.9508,107.75814 234.60645,107.17304 235.53085,106.65854 C 236.26872,106.61244 236.3794,107.22014 236.50751,107.81964 C 236.10782,108.35054 235.60975,108.47454 235.01228,108.66414 z M 104.77272,110.59894 C 104.6395,110.55694 104.54931,110.51294 104.45913,110.46784 C 104.48475,110.21264 104.51139,109.95844 104.53804,109.70434 C 104.84139,109.68484 105.14576,109.66534 105.44911,109.64594 C 105.42349,109.90104 105.39684,110.15524 105.41426,110.40734 C 105.20007,110.47084 104.98691,110.53544 104.77272,110.59894 z M 95.433516,107.90474 C 95.40687,107.50194 95.379202,107.09814 95.352556,106.69544 C 95.528826,106.73544 95.706119,106.77434 95.926455,106.81124 C 95.99102,107.11044 96.097601,107.40664 96.208282,107.75404 C 95.947977,107.77044 95.690747,107.83704 95.433516,107.90474 z M 99.283775,104.87844 C 99.223311,104.62944 99.206913,104.37724 99.192566,104.17644 C 99.366784,104.16514 99.53998,104.15384 99.7142,104.14364 C 99.724448,104.29424 99.737771,104.49614 99.751094,104.69704 C 99.580973,104.75854 99.410854,104.82004 99.283775,104.87844 z M 103.96619,101.90134 C 103.4425,100.61924 103.7766,100.39584 103.87498,99.277737 C 103.60135,99.092237 103.3267,98.907837 103.10021,98.770437 C 103.03975,98.521437 103.0254,98.319537 103.01208,98.118737 C 103.30928,97.998837 103.60955,97.929137 103.90982,97.859437 C 105.37122,98.828937 104.60875,100.44504 104.26339,101.78144 C 104.13323,101.78964 104.0492,101.84594 103.96619,101.90134 z M 237.11726,92.751737 C 236.98098,92.659437 236.88669,92.564137 236.7965,92.519037 C 236.70836,91.210337 237.54667,90.606737 237.81621,89.426137 C 237.98223,89.314437 238.15234,89.252937 238.36652,89.189437 C 239.02243,89.855537 237.88179,91.792437 237.6758,92.615437 C 237.54566,92.623637 237.24434,92.693237 237.11726,92.751737 z M 234.58904,92.759937 C 233.73434,92.359237 233.31621,90.967437 233.32748,89.854537 C 234.4681,88.668837 235.19779,89.962137 235.17318,91.531137 C 235.15065,91.835537 235.07274,92.173737 235.09632,92.526237 C 234.92619,92.586737 234.75608,92.648237 234.58904,92.759937 z M 90.979639,101.35914 C 90.075745,100.25344 88.853132,97.650337 91.023705,97.513037 C 91.279912,98.710037 90.810544,100.15604 91.282985,101.33974 C 91.152833,101.34794 91.065723,101.35404 90.979639,101.35914 z M 90.874081,95.297337 C 90.241766,94.982737 90.501045,93.651537 91.330128,94.307337 C 91.303483,94.561537 91.320905,94.813637 91.337301,95.065737 C 91.16718,95.127237 90.997061,95.188737 90.874081,95.297337 z M 104.97359,94.251037 C 104.91312,94.001937 104.8957,93.750937 104.8793,93.498837 C 105.00946,93.490637 105.18265,93.479337 105.35687,93.469037 C 105.3702,93.669937 105.38352,93.871837 105.39786,94.072737 C 105.22775,94.134137 105.10067,94.192637 104.97359,94.251037 z " />
    <path
       style="fill:#2549a5;fill-rule:evenodd;stroke:none"
       id="path39"
       d="M 167.6876,54.640637 C 195.07804,54.640637 217.495,76.635337 218.17957,103.86484 C 206.38695,97.710837 191.03102,92.261837 174.01792,88.740537 C 154.63649,84.728337 135.96934,83.757837 121.21292,85.398637 C 128.92676,67.346337 146.87038,54.640637 167.6876,54.640637 z M 168.34861,61.229137 L 170.27321,67.150637 L 176.48673,67.141337 L 171.44666,70.761037 L 173.37844,76.708137 L 168.35681,73.058737 L 168.34758,73.063837 L 168.34143,73.059737 L 163.31981,76.708137 L 165.27926,70.823537 L 160.21152,67.141337 L 166.42503,67.150637 L 168.34861,61.229137 z M 169.644,110.39404 L 170.69341,114.76384 L 175.16471,115.10924 L 171.33185,117.42844 L 172.3864,121.81774 L 168.97888,118.90724 L 168.97272,118.91034 L 168.96762,118.90724 L 165.14707,121.24684 L 166.89132,117.12404 L 163.45406,114.18684 L 167.92433,114.54554 L 169.644,110.39404 z M 193.20054,112.06244 L 194.81465,116.72124 L 199.73585,116.61984 L 195.79949,119.56314 L 197.4218,124.24344 L 193.3881,121.43134 L 193.38093,121.43544 L 193.37579,121.43134 L 189.45587,124.39824 L 190.91623,119.70764 L 186.84666,116.86984 L 191.76785,116.78174 L 193.20054,112.06244 z M 167.20696,136.22574 L 168.42855,140.68674 L 173.04025,140.89784 L 169.1736,143.40764 L 170.40031,147.88924 L 166.8001,145.00534 L 166.79293,145.00844 L 166.78883,145.00534 L 162.93447,147.53764 L 164.59366,143.23854 L 160.96169,140.33014 L 165.57237,140.55354 L 167.20696,136.22574 z M 135.19253,104.43874 L 136.57399,109.20834 L 141.52798,109.35994 L 137.41742,112.11674 L 138.80605,116.90674 L 134.89533,113.86924 L 134.88816,113.87324 L 134.88303,113.87024 L 130.78784,116.64954 L 132.4993,112.00814 L 128.55373,108.94394 L 133.5067,109.10994 L 135.19253,104.43874 z M 216.85756,116.69774 C 211.61046,138.98244 191.53522,155.65734 167.6876,155.65734 C 139.86879,155.65734 117.17923,132.96774 117.17923,105.14894 C 117.17923,102.45674 117.39546,99.812737 117.80437,97.232237 C 132.58948,95.563837 151.33246,96.528137 170.79486,100.55674 C 188.73745,104.27174 204.81691,110.11634 216.85756,116.69774 z " />
  </g>
  <path
     d="M 700.32973,1e-005 L 2000,1e-005 L 2000,713.55055 L 700.32973,1e-005 z M 1338.5443,1400 L 0,1400 L 0,665.09867 L 1338.5443,1400 z "
     id="path43"
     style="fill:#008d43;fill-rule:evenodd;stroke:none" />
</svg>
