<?xml version="1.0" encoding="UTF-8" standalone="no"?>
<svg xmlns="http://www.w3.org/2000/svg" width="1000" height="700">
<title>Bandeira de Pernambuco</title>
<rect width="1000" height="400" fill="#101070" />
<path d="m5,595 a 495,495 0 1 1 990,0z" fill="#e6060a" />
<path d="m30,595 a 470,470 0 1 1 940,0z" fill="#fcf10c" />
<path d="m55,595 a 445,445 0 1 1 890,0z" fill="#1d7721" />
<path d="m80,595 a 420,420 0 1 1 840,0z" fill="#101070" />
<rect width="1000" height="300" y="400" fill="#fff" />
<path d="m487,460l0,55-47,0 0,26 47,0 0,99 26,0 0,-99 47,0 0,-26-47,0 0,-55-26,0z" fill="#e6060a" />
<path d="m500,385c3.3,-18.5 5.3,-26.2-11.4,-41.2-2.9,18.1-5.5,25.7-25,34 10.2,-15.9 15,-22.3 5.3,-42.5-9.7,15.6-15,21.7-36.1,21.9 15.5,-10.8 22.3,-14.8 21.1,-37.2-14.9,10.7-22.1,14.2-41.7,6.4 18.4,-4.1 26.3,-5.2 33.7,-26.4-17.8,4.2-25.8,4.8-40.9,-10 18.5,3.3 26.2,5.3 41.2,-11.4-18.1,-2.9-25.7,-5.5-34,-25 15.9,10.2 22.3,15 42.5,5.3-15.6,-9.7-21.7,-15-21.9,-36.1 10.8,15.5 14.8,22.3 37.2,21.1-10.7,-14.9-14.2,-22.1-6.4,-41.7 4.1,18.4 5.2,26.3 26.4,33.7-4.2,-17.8-4.8,-25.8 10,-40.9-3.3,18.5-5.3,26.2 11.4,41.2 2.9,-18.1 5.5,-25.7 25,-34-10.2,15.9-15,22.3-5.3,42.5 9.7,-15.6 15,-21.7 36.1,-21.9-15.5,10.8-22.3,14.8-21.1,37.2 14.9,-10.7 22.1,-14.2 41.7,-6.4-18.4,4.1-26.3,5.2-33.7,26.4 17.8,-4.2 25.8,-4.8 40.9,10-18.5,-3.3-26.2,-5.3-41.2,11.4 18.1,2.9 25.7,5.5 34,25-15.9,-10.2-22.3,-15-42.5,-5.3 15.6,9.7 21.7,15 21.9,36.1-10.8,-15.5-14.8,-22.3-37.2,-21.1 10.7,14.9 14.2,22.1 6.4,41.7-4.1,-18.4-5.2,-26.3-26.4,-33.7 4.2,17.8 4.8,25.8-10,40.9 l 0,0z" fill="#fcf10c" />
<path d="m 500,61.46l-17.6,12.81 6.7,-20.73-17.6,-12.81 21.8,0 6.7,-20.73 6.7,20.73 21.8,0-17.6,12.81 6.7,20.73z" fill="#fcf10c" />
</svg>
