<?xml version="1.0" encoding="utf-8"?>
<!-- Generator: Adobe Illustrator 15.1.0, SVG Export Plug-In . SVG Version: 6.00 Build 0)  -->
<!DOCTYPE svg PUBLIC "-//W3C//DTD SVG 1.1//EN" "http://www.w3.org/Graphics/SVG/1.1/DTD/svg11.dtd">
<svg version="1.1" xmlns="http://www.w3.org/2000/svg" xmlns:xlink="http://www.w3.org/1999/xlink" x="0px" y="0px" width="1200px"
	 height="840px" viewBox="0 0 1200 840" enable-background="new 0 0 1200 840" xml:space="preserve">
<g id="fundo">
	<rect id="brancobaixo" y="420" fill="#FFFFFF" width="1200" height="420"/>
	<rect id="verdecima" fill="#1C593A" width="1200" height="420"/>
</g>
<g id="faixa">
	<path id="fundofaixa" fill="#13307D" d="M952.5,720.5c0,0-93.5-46.5-169-45l2-15.5c0,0-88.5-26-185.5-26s-185.5,26-185.5,26l2,15.5
		c-75.5-1.5-169,45-169,45l78,11.5l-47,51c0,0,85.5-38.5,173-35l-2-16.5c0,0,58-18.5,150.5-18.5s150.5,18.5,150.5,18.5l-2,16.5
		c87.5-3.5,173,35,173,35l-47-51L952.5,720.5z"/>
	<g id="natal">
		<path id="N" fill="#FFFFFF" d="M460.683,711.996l-9.359-46.307l9.098-1.84l25.202,27.096l-6.249-30.926l8.687-1.756l9.358,46.309
			l-9.382,1.896l-24.771-26.426l6.104,30.197L460.683,711.996z"/>
		<path id="A" fill="#FFFFFF" d="M568.909,697.275l-10.344,0.834l-4.975-10.365l-18.823,1.52l-3.024,11.01l-10.086,0.814
			l14.542-48.57l10.054-0.813L568.909,697.275z M549.898,680.057L542,663.105l-4.95,17.988L549.898,680.057z"/>
		<path id="T" fill="#FFFFFF" d="M599.247,696.986l0.222-39.252l-14.018-0.08l0.045-7.99l37.543,0.211l-0.045,7.992l-13.986-0.078
			l-0.223,39.25L599.247,696.986z"/>
		<path id="A2" fill="#FFFFFF" d="M686,702.047l-10.332-0.963l-3.111-11.068l-18.805-1.752l-4.877,10.324l-10.076-0.939
			l22.705-45.332l10.043,0.936L686,702.047z M670.246,681.807l-4.855-18.061l-7.98,16.865L670.246,681.807z"/>
		<path id="L" fill="#FFFFFF" d="M710.219,705.979l9.752-45.83l9.33,1.984l-8.096,38.047l23.199,4.936l-1.656,7.785L710.219,705.979
			z"/>
	</g>
</g>
<g id="escudo">
	<path id="fundoescudo" fill="#13307D" d="M401.332,236.666c7.732,0,14,6.268,14,14c0,0,0,182.334,0,241.666
		c0,43.264,35.072,78.336,78.335,78.336h50c0,0,10.427-2.467,28.666,10.666c7.46,5.371,27.667,21,27.667,21s20.207-15.629,27.668-21
		c18.238-13.133,28.664-10.666,28.664-10.666h50c43.264,0,78.336-35.072,78.336-78.336c0-59.332,0-241.666,0-241.666
		c0-7.732,6.268-14,14-14H401.332z"/>
	<polygon id="listrasraio" fill="#FFFFFF" points="728.652,261.105 513.043,489.105 510.043,487.105 707.811,261.105 
		677.441,261.105 496.543,489.605 493.043,487.105 656.748,261.105 633.654,261.105 476.043,495.105 524.043,489.105 
		760.965,261.105 	"/>
	<polygon id="estrela" fill="#FEDE22" points="487.376,446.943 498.998,481.779 535.718,482.066 506.179,503.883 517.253,538.895 
		487.376,517.545 457.5,538.895 468.574,503.883 439.035,482.066 475.755,481.779 	"/>
</g>
<g id="coroa">
	<g>
		<polygon fill="#FFFFFF" stroke="#000000" stroke-width="3" points="661.92,60.3 660.355,78.985 653.879,78.442 652.232,98.124 
			629.313,96.206 630.959,76.525 624.482,75.983 626.045,57.298 		"/>
		<line fill="none" stroke="#000000" stroke-width="3" x1="653.879" y1="78.442" x2="630.959" y2="76.525"/>
	</g>
	<g>
		<polygon fill="#FFFFFF" stroke="#000000" stroke-width="3" points="706.154,67.904 703.047,86.396 696.637,85.317 
			693.361,104.795 670.68,100.982 673.953,81.507 667.543,80.429 670.652,61.938 		"/>
		<line fill="none" stroke="#000000" stroke-width="3" x1="696.637" y1="85.317" x2="673.953" y2="81.507"/>
	</g>
	<g>
		<polygon fill="#FFFFFF" stroke="#000000" stroke-width="3" points="749.078,77.661 744.865,95.933 738.531,94.472 
			734.094,113.718 711.684,108.552 716.119,89.308 709.785,87.847 713.996,69.575 		"/>
		<line fill="none" stroke="#000000" stroke-width="3" x1="738.531" y1="94.472" x2="716.119" y2="89.308"/>
	</g>
	<g>
		<polygon fill="#FFFFFF" stroke="#000000" stroke-width="3" points="791.023,90.979 785.344,108.85 779.148,106.88 768.723,124.29 
			751.246,118.736 757.229,99.915 751.035,97.945 756.715,80.075 		"/>
		<line fill="none" stroke="#000000" stroke-width="3" x1="779.148" y1="106.88" x2="757.229" y2="99.915"/>
	</g>
	<g>
		<polygon fill="#FFFFFF" stroke="#000000" stroke-width="3" points="582,57 582,75.75 588.5,75.75 588.5,95.5 611.5,95.5 
			611.5,75.75 618,75.75 618,57 		"/>
		<line fill="none" stroke="#000000" stroke-width="3" x1="588.5" y1="75.75" x2="611.5" y2="75.75"/>
	</g>
	<g>
		<polygon fill="#FFFFFF" stroke="#000000" stroke-width="3" points="538.08,60.3 539.645,78.985 546.121,78.442 547.768,98.124 
			570.688,96.206 569.041,76.525 575.518,75.983 573.955,57.298 		"/>
		<line fill="none" stroke="#000000" stroke-width="3" x1="546.121" y1="78.442" x2="569.041" y2="76.525"/>
	</g>
	<g>
		<polygon fill="#FFFFFF" stroke="#000000" stroke-width="3" points="493.846,67.904 496.954,86.396 503.363,85.317 
			506.639,104.795 529.32,100.982 526.046,81.507 532.456,80.429 529.348,61.938 		"/>
		<line fill="none" stroke="#000000" stroke-width="3" x1="503.363" y1="85.317" x2="526.046" y2="81.507"/>
	</g>
	<g>
		<polygon fill="#FFFFFF" stroke="#000000" stroke-width="3" points="450.923,77.661 455.135,95.933 461.468,94.472 
			465.905,113.718 488.317,108.552 483.881,89.308 490.215,87.847 486.003,69.575 		"/>
		<line fill="none" stroke="#000000" stroke-width="3" x1="461.468" y1="94.472" x2="483.881" y2="89.308"/>
	</g>
	<g>
		<polygon fill="#FFFFFF" stroke="#000000" stroke-width="3" points="408.978,90.979 414.657,108.85 420.851,106.88 431.276,124.29 
			448.754,118.736 442.771,99.915 448.966,97.945 443.286,80.075 		"/>
		<line fill="none" stroke="#000000" stroke-width="3" x1="420.851" y1="106.88" x2="442.771" y2="99.915"/>
	</g>
	<path fill="#FFFFFF" stroke="#000000" stroke-width="3" d="M735.07,111.584C704.262,101.528,655.172,89.167,600,89.167
		s-104.261,12.361-135.069,22.417h-41.263l19.104,31.903L482,209c0,0,98,4,118,4s118-4,118-4l39.229-65.513l19.104-31.903H735.07z"
		/>
	<line fill="none" stroke="#000000" stroke-width="3" x1="487.166" y1="170.834" x2="487.166" y2="151.084"/>
	<line fill="none" stroke="#000000" stroke-width="3" x1="524.777" y1="170.834" x2="524.777" y2="151.084"/>
	<line fill="none" stroke="#000000" stroke-width="3" x1="562.389" y1="170.834" x2="562.389" y2="151.084"/>
	<line fill="none" stroke="#000000" stroke-width="3" x1="600" y1="170.834" x2="600" y2="151.084"/>
	<line fill="none" stroke="#000000" stroke-width="3" x1="467.166" y1="151.084" x2="467.166" y2="131.334"/>
	<line fill="none" stroke="#000000" stroke-width="3" x1="504.777" y1="151.084" x2="504.777" y2="131.334"/>
	<line fill="none" stroke="#000000" stroke-width="3" x1="542.389" y1="151.084" x2="542.389" y2="131.334"/>
	<line fill="none" stroke="#000000" stroke-width="3" x1="580" y1="151.084" x2="580" y2="131.334"/>
	<line fill="none" stroke="#000000" stroke-width="3" x1="449.555" y1="131.334" x2="449.555" y2="111.584"/>
	<line fill="none" stroke="#000000" stroke-width="3" x1="487.166" y1="131.334" x2="487.166" y2="111.584"/>
	<line fill="none" stroke="#000000" stroke-width="3" x1="524.777" y1="131.334" x2="524.777" y2="111.584"/>
	<line fill="none" stroke="#000000" stroke-width="3" x1="562.389" y1="131.334" x2="562.389" y2="111.584"/>
	<line fill="none" stroke="#000000" stroke-width="3" x1="600" y1="131.334" x2="600" y2="111.584"/>
	<line fill="none" stroke="#000000" stroke-width="3" x1="467.166" y1="184.227" x2="467.166" y2="170.834"/>
	<line fill="none" stroke="#000000" stroke-width="3" x1="504.777" y1="190.584" x2="504.777" y2="170.834"/>
	<line fill="none" stroke="#000000" stroke-width="3" x1="542.389" y1="190.584" x2="542.389" y2="170.834"/>
	<line fill="none" stroke="#000000" stroke-width="3" x1="580" y1="190.584" x2="580" y2="170.834"/>
	<line fill="none" stroke="#000000" stroke-width="3" x1="507.166" y1="111.584" x2="507.166" y2="99.915"/>
	<line fill="none" stroke="#000000" stroke-width="3" x1="544.777" y1="111.584" x2="544.777" y2="93.089"/>
	<line fill="none" stroke="#000000" stroke-width="3" x1="582.389" y1="111.584" x2="582.389" y2="89.581"/>
	<line fill="none" stroke="#000000" stroke-width="3" x1="600" y1="213" x2="600" y2="190.584"/>
	<line fill="none" stroke="#000000" stroke-width="3" x1="542.389" y1="211.325" x2="542.389" y2="195.961"/>
	<path fill="none" stroke="#000000" stroke-width="3" d="M718,209c0,0-65.668-18.416-118-18.416c-52.333,0-118,18.416-118,18.416"/>
	<line fill="none" stroke="#000000" stroke-width="3" x1="740.854" y1="170.834" x2="459.146" y2="170.834"/>
	<line fill="none" stroke="#000000" stroke-width="3" x1="712.834" y1="170.834" x2="712.834" y2="151.084"/>
	<line fill="none" stroke="#000000" stroke-width="3" x1="675.223" y1="170.834" x2="675.223" y2="151.084"/>
	<line fill="none" stroke="#000000" stroke-width="3" x1="637.611" y1="170.834" x2="637.611" y2="151.084"/>
	<line fill="none" stroke="#000000" stroke-width="3" x1="752.68" y1="151.084" x2="447.32" y2="151.084"/>
	<line fill="none" stroke="#000000" stroke-width="3" x1="732.834" y1="151.084" x2="732.834" y2="131.334"/>
	<line fill="none" stroke="#000000" stroke-width="3" x1="695.223" y1="151.084" x2="695.223" y2="131.334"/>
	<line fill="none" stroke="#000000" stroke-width="3" x1="657.611" y1="151.084" x2="657.611" y2="131.334"/>
	<line fill="none" stroke="#000000" stroke-width="3" x1="620" y1="151.084" x2="620" y2="131.334"/>
	<line fill="none" stroke="#000000" stroke-width="3" x1="765" y1="131.334" x2="435" y2="131.334"/>
	<line fill="none" stroke="#000000" stroke-width="3" x1="750.445" y1="131.334" x2="750.445" y2="111.584"/>
	<line fill="none" stroke="#000000" stroke-width="3" x1="712.834" y1="131.334" x2="712.834" y2="111.584"/>
	<line fill="none" stroke="#000000" stroke-width="3" x1="675.223" y1="131.334" x2="675.223" y2="111.584"/>
	<line fill="none" stroke="#000000" stroke-width="3" x1="637.611" y1="131.334" x2="637.611" y2="111.584"/>
	<line fill="none" stroke="#000000" stroke-width="3" x1="729.027" y1="190.584" x2="470.973" y2="190.584"/>
	<line fill="none" stroke="#000000" stroke-width="3" x1="732.834" y1="184.227" x2="732.834" y2="170.834"/>
	<line fill="none" stroke="#000000" stroke-width="3" x1="695.223" y1="190.584" x2="695.223" y2="170.834"/>
	<line fill="none" stroke="#000000" stroke-width="3" x1="657.611" y1="190.584" x2="657.611" y2="170.834"/>
	<line fill="none" stroke="#000000" stroke-width="3" x1="620" y1="190.584" x2="620" y2="170.834"/>
	<line fill="none" stroke="#000000" stroke-width="3" x1="776.332" y1="111.584" x2="423.668" y2="111.584"/>
	<line fill="none" stroke="#000000" stroke-width="3" x1="692.834" y1="111.584" x2="692.834" y2="99.915"/>
	<line fill="none" stroke="#000000" stroke-width="3" x1="655.223" y1="111.584" x2="655.223" y2="93.089"/>
	<line fill="none" stroke="#000000" stroke-width="3" x1="617.611" y1="111.584" x2="617.611" y2="89.581"/>
	<line fill="none" stroke="#000000" stroke-width="3" x1="657.611" y1="211.325" x2="657.611" y2="195.961"/>
</g>
</svg>
